<svg xmlns="http://www.w3.org/2000/svg" viewBox="0 0 330 100"><path fill="#fff" d="M92.43 65.68H99v-9.94a8.89 8.89 0 0 0 7.21 3.46c5.48 0 10.54-4.23 10.54-12s-5.15-12.02-10.55-12.02a8.5 8.5 0 0 0-7.2 3.76v-3.33h-6.57zm12.09-12.05c-3.07 0-5.61-2.55-5.61-6.39s2.55-6.48 5.61-6.48 5.66 2.55 5.66 6.39-2.59 6.48-5.66 6.48zm17.18-20.56h6.91v-5.83h-6.91zm.17 25.7h6.56V35.61h-6.56zm20.55.39a9.68 9.68 0 0 0 5.18-1.34v-5.27a6.68 6.68 0 0 1-3.24.82c-1.47 0-2.12-.73-2.12-2.25v-9.89h5.44v-5.62h-5.44V29.7h-6.56v5.92h-2.76v5.62h2.76v11c0 5.36 2.72 7 6.74 7zm20.42.13a11.58 11.58 0 0 0 9.47-4.29l-3.76-3.33a7.59 7.59 0 0 1-5.62 2.33 5.37 5.37 0 0 1-5.66-4.54h16.11c0-.6.09-1.21.09-1.73 0-6.57-3.54-12.57-11.27-12.57-6.74 0-11.44 5.44-11.44 12.05 0 7.17 5.14 12.05 12.09 12.05zm-5.66-13.91c.52-3 2.29-4.92 5-4.92s4.49 2 4.88 4.92zm21.16 13.39h6.56v-8.56c0-5.53 2.68-8.16 7-8.16h.35v-6.87c-3.89-.17-6 1.9-7.39 5.1v-4.67h-6.56zm28.33.52a11.66 11.66 0 0 0 9.46-4.23l-3.84-3.89a7.33 7.33 0 0 1-5.29 2.46c-3.58 0-5.87-2.85-5.87-6.39s2.33-6.39 5.61-6.39a7.08 7.08 0 0 1 5.4 2.29l3.86-3.9a11.39 11.39 0 0 0-9.2-4.06 12.05 12.05 0 1 0-.09 24.1zm22.39-.09c5 0 8.85-2.33 8.85-7.47 0-4.32-3.76-5.87-7-7-2.5-.86-4.71-1.47-4.71-2.76 0-1 .82-1.68 2.42-1.68a13.71 13.71 0 0 1 6.26 2.16l2.5-4.54a16 16 0 0 0-8.64-2.68c-4.66 0-8.46 2.63-8.46 7.34s3.67 6.09 6.91 7c2.55.78 4.79 1.25 4.79 2.68 0 1.12-.86 1.81-2.76 1.81a13.09 13.09 0 0 1-7.3-2.76l-2.81 4.32a16.21 16.21 0 0 0 9.93 3.5zm21.24 0c5 0 8.85-2.33 8.85-7.47 0-4.32-3.76-5.87-7-7-2.5-.86-4.71-1.47-4.71-2.76 0-1 .82-1.68 2.42-1.68a13.71 13.71 0 0 1 6.26 2.16l2.5-4.54a16 16 0 0 0-8.62-2.64c-4.66 0-8.46 2.63-8.46 7.34s3.67 6.09 6.91 7c2.55.78 4.79 1.25 4.79 2.68 0 1.12-.86 1.81-2.76 1.81a13.09 13.09 0 0 1-7.3-2.76l-2.81 4.32a16.21 16.21 0 0 0 9.93 3.5zM103.35 99.59a11.66 11.66 0 0 0 9.46-4.23L109 91.47a7.33 7.33 0 0 1-5.31 2.46c-3.58 0-5.87-2.85-5.87-6.39s2.33-6.39 5.61-6.39a7.08 7.08 0 0 1 5.4 2.29l3.84-3.89a11.39 11.39 0 0 0-9.2-4.06 12.05 12.05 0 1 0-.09 24.1zm23.62 0c7.21 0 12.57-5.4 12.57-12.05s-5.31-12.05-12.48-12.05-12.57 5.4-12.57 12.05S119.8 99.59 127 99.59zm.09-5.66a6.15 6.15 0 0 1-6.06-6.39c0-3.5 2.25-6.39 6-6.39a6.15 6.15 0 0 1 6.09 6.39c0 3.5-2.25 6.39-6 6.39zm17.31 5.14h6.56V86.16c0-3.11 1.6-4.71 4.1-4.71s4 1.6 4 4.71v12.92h6.56v-15c0-5.31-2.89-8.6-7.86-8.6-3.33 0-5.27 1.77-6.78 3.71v-3.27h-6.56zm28 0H179V81.54h5.23v-5.36h-5.31v-.91c0-1.73.86-2.51 2.38-2.51a8.31 8.31 0 0 1 3 .56v-5.43a14.53 14.53 0 0 0-4.66-.65 7.2 7.2 0 0 0-5.31 1.81c-1.21 1.21-1.86 3.07-1.86 5.62v1.47h-2.72v5.4h2.72zm25.91.52a11.58 11.58 0 0 0 9.46-4.32L204 91.95a7.59 7.59 0 0 1-5.61 2.38 5.37 5.37 0 0 1-5.66-4.54h16.11c0-.6.09-1.21.09-1.73 0-6.57-3.54-12.57-11.27-12.57-6.74 0-11.44 5.44-11.44 12.05 0 7.17 5.14 12.05 12.09 12.05zm-5.66-13.91c.52-3 2.29-4.92 5-4.92s4.49 2 4.88 4.92zm21.16 13.39h6.56v-8.55c0-5.53 2.68-8.16 7-8.16h.35v-6.87c-3.89-.17-6 1.9-7.39 5.1v-4.67h-6.56zm28.16.52a11.58 11.58 0 0 0 9.46-4.32l-3.76-3.33a7.59 7.59 0 0 1-5.64 2.38 5.37 5.37 0 0 1-5.66-4.54h16.16c0-.6.09-1.21.09-1.73 0-6.57-3.54-12.57-11.27-12.57-6.74 0-11.44 5.44-11.44 12.05 0 7.17 5.14 12.05 12.09 12.05zm-5.64-13.9c.52-3 2.29-4.92 5-4.92s4.49 2 4.88 4.92zm21.16 13.39H264V86.16c0-3.11 1.6-4.71 4.1-4.71s4 1.6 4 4.71v12.92h6.56v-15c0-5.31-2.89-8.6-7.86-8.6-3.33 0-5.27 1.77-6.78 3.71v-3.27h-6.56zm37.83.52a11.66 11.66 0 0 0 9.46-4.23l-3.84-3.89a7.33 7.33 0 0 1-5.31 2.46c-3.58 0-5.87-2.85-5.87-6.39s2.33-6.39 5.61-6.39a7.08 7.08 0 0 1 5.4 2.29l3.84-3.89a11.39 11.39 0 0 0-9.2-4.06 12.05 12.05 0 1 0-.09 24.1zm23.38 0a11.58 11.58 0 0 0 9.46-4.32l-3.76-3.33a7.59 7.59 0 0 1-5.61 2.38 5.37 5.37 0 0 1-5.66-4.54h16.11c0-.6.09-1.21.09-1.73 0-6.57-3.54-12.57-11.27-12.57-6.74 0-11.45 5.44-11.45 12.05 0 7.17 5.14 12.05 12.09 12.05zM313 85.69c.52-3 2.29-4.92 5-4.92s4.49 2 4.88 4.92zM24.55 64.06L61.65.13H37.24L0 64.06h24.55M82.56.33l-1.1 8.13 6.46-5 2.76 4.58-8.36 3.09 8.23 3.45-2.62 4.56-6.73-5.21 1.53 8.29-5.35.01 1-8.58-6.48 5.22-2.67-4.67 7.71-2.72-7.7-3.09 2.69-4.68 6.8 5.36L77.2.33h5.36"/></svg>