<svg xmlns="http://www.w3.org/2000/svg" width="475.95" height="116.15" viewBox="0 0 475.95 116.15"><title>Яндекс Такси</title><path d="M25 114.27V74.88L0 10.25h11.87l18.76 50.19L51.94 0h10.93l-27 75.28v39z" fill="red"/><path d="M73.66 42.77q9.44 0 14.44 5.33t5 18.42v47.76h-8l-1.1-4.73a36.3 36.3 0 0 1-5.46 3.91 14.92 14.92 0 0 1-7.76 1.89 15.47 15.47 0 0 1-12.28-5.26Q54 104.82 54 95.25q0-10.8 5.87-16.66t19-8.16l3.64-.68v-3.37q0-8.09-2.09-11.47t-6.68-3.37a11.45 11.45 0 0 0-6.21 1.69 28.1 28.1 0 0 0-5.4 4.52l-4.72-9.31a37.86 37.86 0 0 1 7.08-3.84 23.15 23.15 0 0 1 9.17-1.83zm8.77 35.48l-1.62.27a33.55 33.55 0 0 0-8.09 2.43 13.94 13.94 0 0 0-4.79 3.51 11.06 11.06 0 0 0-2.3 4.54 24.68 24.68 0 0 0-.63 5.71q0 6.07 2.43 8.77a8.77 8.77 0 0 0 6.88 2.7 10.74 10.74 0 0 0 4.39-.81 17.66 17.66 0 0 0 3.71-2.29zm34.81 36h-10.8v-69.6h10.79v4a33.6 33.6 0 0 1 4.32-2.43 31.78 31.78 0 0 1 4.39-1.75 16.28 16.28 0 0 1 5.06-.81q6.88 0 10.66 3.31t3.78 9.78v57.47h-10.8V60a6.28 6.28 0 0 0-2.36-5.3 9.13 9.13 0 0 0-5.73-1.81 11.17 11.17 0 0 0-3.51.54 22.85 22.85 0 0 0-3 1.21 30.59 30.59 0 0 0-2.83 1.75zm82-104v104h-8l-1.08-4.18a26 26 0 0 1-5.67 4.25 14.34 14.34 0 0 1-7.15 1.82 16.89 16.89 0 0 1-8.5-2.23 20 20 0 0 1-6.75-6.48 34.21 34.21 0 0 1-4.45-10.59 59.8 59.8 0 0 1-1.62-14.71q0-19.43 6.54-29.34t17.14-9.89a23.14 23.14 0 0 1 8.77 2V10.25zm-31.7 69.61q0 12.15 3 19.63t9.92 7.49a9.91 9.91 0 0 0 4.38-1 23.27 23.27 0 0 0 3.57-2.09V54.64a13.22 13.22 0 0 0-8.36-3.1A7.54 7.54 0 0 0 174.5 54a18.89 18.89 0 0 0-3.91 6.41 41.31 41.31 0 0 0-2.29 9.1 72.28 72.28 0 0 0-.74 10.35zM249 111a45.52 45.52 0 0 1-7.49 3.31 28.32 28.32 0 0 1-9.24 1.42 19.81 19.81 0 0 1-16.86-8.73q-6.34-8.76-6.34-24.69a82.81 82.81 0 0 1 1.28-14.77A48.9 48.9 0 0 1 214.27 55a25.23 25.23 0 0 1 6.68-8.77 14.88 14.88 0 0 1 9.71-3.31q8.36 0 13.49 8.42c3.42 5.62 5.55 13.9 5.55 24.86v6h-29.43q0 11.21 3.84 17.48t12.07 6.27a24.8 24.8 0 0 0 6.41-.88 39.42 39.42 0 0 0 5.19-1.69zm-18.75-59.46a5.77 5.77 0 0 0-4 1.62 12.73 12.73 0 0 0-3 4.52 31.61 31.61 0 0 0-1.89 6.81 75.81 75.81 0 0 0-.94 8.5h17.81V71.5c0-.45 0-.94-.07-1.48s-.07-1.12-.07-1.75q-.54-8-2.56-12.34t-5.28-4.39zm67.08-6.88l-13.62 32.51 13.35 37.1h-10.92l-9.58-28.19-10.12 28.19h-10.79l14.84-35.62-13.49-34h11.6l8.91 25.63 9.31-25.63zM372.12 18.64H325.4v6.93h19.22v88.78h8.15V25.57h19.35v-6.93M406.73 107.95a62.29 62.29 0 0 1-.4-7V63.72c0-7-1.58-12.17-4.69-15.52s-7.66-5.07-13.46-5.07a22.73 22.73 0 0 0-10.32 2.19 18.25 18.25 0 0 0-6.44 5l-.25.33 2.38 7.86 1-1.41a16.13 16.13 0 0 1 5.92-5.22 16.66 16.66 0 0 1 7.74-1.87c3.56 0 6.13 1.07 7.88 3.27s2.66 6 2.66 11.06v7.7h-6.65c-7.59 0-13.47 2-17.49 5.85s-6.07 9.66-6.07 17.17c0 6.4 1.52 11.47 4.52 15.08a15.67 15.67 0 0 0 21.17 2.49 21.63 21.63 0 0 0 5-5.65 31 31 0 0 0 .51 3.21c.32 1.42.62 2.59.9 3.51l.18.59h7.34l-.4-1.11a25 25 0 0 1-1.03-5.23zm-8-29.87v18.47a28.4 28.4 0 0 1-5 9.12 9.31 9.31 0 0 1-7.42 3.65 8.53 8.53 0 0 1-7.32-3.74c-1.87-2.56-2.82-6.23-2.82-10.92 0-5.81 1.33-10.08 4-12.66s6.71-3.91 12.14-3.91zM456.04 44.49h-7.37l-12.06 27.48-12.31-27.48h-8.18l15.26 33.58-16.2 36.28h7.22l13.28-29.66 13.26 29.66h8.18l-16.48-35.88 15.4-33.98M470.92 32.61a5 5 0 0 0 5-5A5.13 5.13 0 0 0 474.5 24a4.94 4.94 0 0 0-7.16 0 5.13 5.13 0 0 0-1.44 3.62 5 5 0 0 0 5 5zM466.99 44.49h7.74v69.86h-7.74z" fill="#010101"/></svg>
