<svg width="200" height="43" viewBox="0 0 200 43" xmlns="http://www.w3.org/2000/svg"><title>selectel_logo_web</title><g fill="none" fill-rule="evenodd" transform="matrix(1.7864 0 0 1.7864 0 -.047)"><path d="M71.31 5.95c-.728 0-1.393.037-1.977.11-2.415.296-4.273 1.654-5.373 3.924-1.003 2.07-1.08 4.202-1.08 4.806 0 .6.077 2.722 1.082 4.787 1.1 2.26 2.957 3.624 5.368 3.945.51.068 1.116.102 1.8.102 2.09 0 4.3-.323 4.322-.326l.248-.037V19.5s-2.42.168-3.638.168c-1.512 0-2.164-.1-2.446-.184-1.704-.51-1.875-3.178-1.87-4.3.002-.134.002-.653 0-.786-.005-1.15.165-3.872 1.86-4.298.494-.125 1.37-.19 2.532-.19 1.213 0 3.562.172 3.562.172v-3.78l-.245-.038c-.02-.003-2.03-.314-4.145-.314" fill="#404041"/><mask id="a" fill="#fff"><path d="M0 .06h111.97v23.88H0z"/></mask><path fill="#404041" mask="url(#a)" d="M107.54 23.624h4.43V.06h-4.43zm-76.908-10.94h-6.547c.17-1.53.498-3.144 3.23-3.144 3.164 0 3.237 1.516 3.31 2.982 0 .054.004.108.007.16M27.47 5.85h-.216c-1.8 0-4.283.383-5.9 2.214-1.395 1.55-2.195 3.87-2.195 6.366v.637c0 .416.056 2.6 1.184 4.71 1.17 2.192 3.1 3.497 5.584 3.775.427.048.887.072 1.366.072 2.977 0 5.91-.908 6.032-.946l.205-.065v-3.35s-3.864.434-5.14.475c-3.9.126-4.36-1.86-4.406-3.42h10.943v-2.994c0-2.46-.628-4.283-1.92-5.57-1.554-1.575-3.868-1.905-5.537-1.905m28.695 6.855H49.62c.168-1.53.497-3.143 3.23-3.143 3.162 0 3.236 1.516 3.307 2.982l.008.16m-3.16-6.833h-.217c-1.8 0-4.283.386-5.9 2.216-1.395 1.55-2.195 3.87-2.195 6.366v.637c0 .415.057 2.598 1.184 4.71 1.17 2.19 3.102 3.496 5.584 3.774.428.048.888.072 1.367.072 2.978 0 5.91-.907 6.033-.946l.205-.065v-3.35s-3.865.434-5.142.475c-3.9.126-4.358-1.86-4.406-3.42H60.46v-2.994c0-2.46-.628-4.283-1.918-5.57-1.555-1.575-3.87-1.905-5.538-1.905m47.322 6.835H93.78c.168-1.53.497-3.143 3.23-3.143 3.162 0 3.236 1.516 3.307 2.982.003.054.005.108.01.16m-3.163-6.833h-.216c-1.8 0-4.283.386-5.9 2.216-1.395 1.55-2.195 3.87-2.195 6.366v.637c0 .415.057 2.598 1.185 4.71 1.17 2.19 3.1 3.496 5.583 3.774.43.048.888.072 1.367.072 2.978 0 5.91-.907 6.033-.946l.205-.065v-3.35s-3.865.434-5.142.475c-3.9.126-4.358-1.86-4.406-3.42h10.944v-2.994c0-2.46-.627-4.283-1.92-5.57-1.553-1.575-3.868-1.905-5.536-1.905M37.846 23.647h4.43V.06h-4.43z"/><g mask="url(#a)"><path d="M5.976 13.226c1.12.436 4.17 1.628 4.84 1.91.45.188.787.48 1 .866l.083.152h4.782l-.04-.345c-.436-3.747-2.887-4.683-5.257-5.59-.795-.303-2.214-.81-3.25-1.177-.574-.205-1.028-.367-1.146-.412C5.62 8.1 4.495 7.544 4.64 6.1c.123-1.224 1.1-1.726 3.373-1.734 2.296.005 6.936.41 6.983.414l.312.028V1.008l-.217-.06C15.06.94 10.674.08 7.954.06H7.84c-1.977 0-3.616.354-4.874 1.054C.998 2.21 0 4.106 0 6.75c0 2.907 1.787 4.843 5.976 6.476" fill="#C02C25"/><path d="M11.864 18.205c-.53 1.156-2.01 1.266-3.5 1.266h-.18c-2.38 0-7.493-.546-7.545-.552l-.32-.034v4.045l.22.056c.036.01 4.302.955 7.422.955 5.25 0 8.247-1.98 8.688-5.735h-4.786z" fill="#404041"/></g><path fill="#C02C25" mask="url(#a)" d="M83.096 9.765h3.938V6.022h-3.938V.06h-4.49V16.17h4.49z"/><path d="M85.164 19.69c-1.395 0-2.005-.43-2.063-1.472h-4.49c.037 3.654 2.417 5.17 4.647 5.37.162.013.342.02.536.02 1.37 0 3.385-.416 3.385-.416v-3.63s-1.608.128-2.014.128" fill="#404041" mask="url(#a)"/></g></svg>