<svg width="200" height="39" viewBox="0 0 200 39" xmlns="http://www.w3.org/2000/svg"><path d="M38.794 25.635c0 3.844 2.325 6.11 5.662 6.11 2.623 0 4.65-1.67 4.65-4.144 0-2.83-2.43-3.783-5.514-4.945-6.51-2.37-11.98-4.44-11.98-11.622 0-6.512 5.96-9.954 12.427-9.954 8.388 0 12.575 5.26 12.575 11.264h-8.18c0-3.13-1.565-5.096-4.396-5.096-2.325 0-4.292 1.207-4.292 3.636 0 2.324 2.07 3.59 5.05 4.648 5.812 2.027 12.428 4.35 12.428 11.414 0 7.27-5.513 11.31-13.29 11.31-7.585 0-13.337-4.546-13.337-12.636h8.194zM62.59 1.988h7.48V16.53c1.37-2.532 4.142-4.14 7.882-4.14 3.13 0 5.304 1.056 6.615 2.77 1.52 1.862 1.967 4.29 1.967 7.778V37.33h-7.48V24.86c0-3.487-1.058-5.915-4.29-5.915-3.13 0-4.695 2.428-4.695 6.168V37.33h-7.48V1.99zM96.59.022c2.832 0 5.008 2.175 5.008 4.902 0 2.682-2.176 4.902-5.007 4.902-2.77 0-4.945-2.22-4.945-4.902C91.63 2.182 93.805.022 96.59.022zM92.748 13h7.733v24.346h-7.733V13zM127.658 30.18c0 5.765-4.947 7.837-11.01 7.837-6.915 0-11.22-3.19-11.22-8.79h7.583c0 2.576 1.61 3.59 3.89 3.59 1.863 0 3.19-.656 3.19-2.28 0-1.863-1.923-2.116-6.513-3.636-4.037-1.265-7.524-2.428-7.524-7.12 0-5.052 4.187-7.42 10.758-7.42 7.078 0 10.505 3.59 10.505 8.238h-7.63c0-2.026-1.056-3.188-3.187-3.188-1.565 0-2.876.7-2.876 2.175 0 1.773 2.116 2.07 6.213 3.442 4.277 1.237 7.823 2.4 7.823 7.152zM132.813 1.988h7.48V16.53c1.37-2.532 4.142-4.14 7.882-4.14 3.13 0 5.305 1.056 6.616 2.77 1.52 1.862 1.968 4.29 1.968 7.778V37.33h-7.48V24.86c0-3.487-1.058-5.915-4.29-5.915-3.13 0-4.695 2.428-4.695 6.168V37.33h-7.48V1.99zM177.916 25.173l9.446 12.173h-9.193l-7.48-10.206v10.206h-7.734V1.988h7.733V23.31L178.213 13h9.193l-9.49 12.173zM194.782.022c2.83 0 5.007 2.175 5.007 4.902 0 2.682-2.177 4.902-5.008 4.902-2.77 0-4.946-2.22-4.946-4.902 0-2.742 2.175-4.902 4.946-4.902zM190.952 13h7.734v24.346h-7.733V13z"/><path fill="#017cff" d="M19.53 5.594l-6.244 2.548.536-6.84h-5.96l.52 6.84-6.286-2.548-1.848 5.468 6.482 1.7-4.664 5.72 4.887 3.457 3.86-6.318 3.858 6.317 4.888-3.457-4.663-5.722 6.48-1.698-1.846-5.468z"/></svg>