<svg width="200" height="57" viewBox="0 0 200 57" xmlns="http://www.w3.org/2000/svg"><g fill="#333"><path d="M2.412 35.88s3.464 4.7 9.59 4.7c3.463 0 6.556-1.67 6.556-4.95 0-6.803-17.445-5.566-17.445-15.588 0-5.63 4.825-8.413 11.074-8.413 3.154 0 9.463 1.236 9.463 5.63v2.66h-3.958v-1.486c0-2.29-3.34-3.155-5.382-3.155-4.33 0-6.927 1.484-6.927 4.515 0 6.99 17.444 5.382 17.444 15.712 0 5.196-4.7 8.723-10.888 8.723C3.834 44.23 0 38.786 0 38.786l2.412-2.906zM30.617 5.012c0-.866-.495-1.36-1.36-1.36h-2.6V0h4.393c2.66 0 3.774.928 3.774 3.588V24.25h3.217c1.176 0 2.66-.37 3.526-1.485l7.98-10.39h5.134l-8.97 11.38c-1.547 1.92-2.35 2.23-2.35 2.23v.123s.927.433 1.916 2.29l5.63 10.082c.557 1.05 1.176 1.36 2.846 1.36h1.67v3.65h-2.907c-3.093 0-3.96-.494-5.382-3.092l-6.186-11.136c-.68-1.237-2.165-1.36-3.28-1.36h-2.844V43.49h-4.207V5.012zM62.66 52.704c2.72 0 4.576-2.227 5.75-5.073l1.857-4.267-10.95-25.92c-.494-1.112-1.05-1.42-2.164-1.42h-.62v-3.65h1.918c2.785 0 3.65.618 4.764 3.4l7.98 19.425c.618 1.546 1.113 3.34 1.113 3.34h.124s.434-1.794 1.052-3.34l7.67-19.424c1.052-2.783 1.98-3.402 4.826-3.402h1.918v3.65h-.62c-1.112 0-1.73.31-2.164 1.422l-13.424 32.54c-1.61 3.957-4.762 6.495-8.908 6.495-4.33 0-6.743-3.034-6.743-3.034l1.98-3.092c.002.063 1.98 2.35 4.642 2.35zM106.885 11.197c9.03 0 13.98 6.618 13.98 14.97 0 .928-.186 2.907-.186 2.907H98.904c.618 5.57 4.7 8.476 9.463 8.476 5.074 0 8.847-3.526 8.847-3.526l3.278 5.445s-4.825 4.76-12.68 4.76c-10.456 0-16.95-7.545-16.95-16.515 0-9.714 6.557-16.518 16.022-16.518zm5.937 12.434c-.124-3.772-2.72-6.37-5.937-6.37-4.022 0-6.867 2.412-7.733 6.37h13.67zM128.47 19.98c0-.927-.495-1.36-1.36-1.36h-2.476v-6.68h7.238c2.783 0 4.144 1.298 4.144 3.525v.928c0 .68-.124 1.36-.124 1.36h.124c1.36-2.66 4.763-6.556 11.135-6.556 6.992 0 11.013 3.65 11.013 12V35.51c0 .864.495 1.36 1.36 1.36H162v6.62h-7.487c-2.97 0-4.207-1.238-4.207-4.208V24.806c0-3.836-.99-6.434-4.948-6.434-4.208 0-7.363 2.66-8.476 6.434-.433 1.3-.617 2.722-.617 4.206v14.476h-7.795V19.98zM179.068 11.197c7.3 0 9.713 4.454 9.713 4.454h.125v-.804c0-1.422.99-2.907 3.463-2.907h7.3v6.68h-2.413c-.804 0-1.36.433-1.36 1.237V41.57c0 10.824-8.413 14.907-16.64 14.907-3.96 0-8.167-1.113-11.198-2.72l2.414-6.188s3.896 2.103 8.723 2.103c4.763 0 8.907-2.042 8.907-7.733v-1.484c0-.743.062-1.67.062-1.67h-.123c-1.857 2.66-4.58 4.083-8.785 4.083-9.032 0-14.166-7.3-14.166-15.962s4.884-15.71 13.978-15.71zm9.218 15.774c0-7.175-3.588-9.093-7.857-9.093-4.764 0-7.363 3.464-7.363 8.784 0 5.507 2.784 9.59 7.857 9.59 3.774 0 7.362-2.165 7.362-9.28z"/></g></svg>