<svg width="200" height="75" viewBox="0 0 200 75" xmlns="http://www.w3.org/2000/svg"><title>semrush-logo</title><path fill="#b94f26" d="M146.677 6.988c-8.843.054-14.312 9.66-9.843 17.292 4.468 7.63 15.522 7.564 19.897-.122.986-1.732 1.505-3.69 1.505-5.682 0-6.372-5.186-11.527-11.558-11.488zm5.27 19.093c4.466-5.647 1.347-14.02-5.727-15.368.42-.575.883-1.115 1.388-1.616 7.277 1.244 10.48 9.9 5.763 15.58-.43.517-.913.99-1.44 1.405z"/><path fill="#b94f26" d="M158.797 5.776C154.3 1.068 148.135-.53 140.317.928c-5.804 1.33-11.72 2.123-17.67 2.37-3.075-.13-6.12-.654-9.063-1.562 1.397 2.136 3.46 3.754 5.867 4.602 2.214.826 5.27 2.09 3.953 4.216-1.546 2.406-3.935.386-4.585-.14-2.284-1.958-4.728-3.72-7.307-5.27-4.425-2.6-10.538-2.653-16.756-2.056 0 0 5.06 1.072 7.325 3.355 0 0-9.803-2.002-16.16 1.107 9.273.35 19.48 1.757 21.235 2.6 1.757.843.878 1.387-.79 1.756-5.452 1.066-11.064 1.013-16.494-.158-6.832-1.95-12.593-7.64-22.342-6.113 8.607 1.757 13.192 9.872 22.59 11.787 9.396 1.914 15.702-1.757 17.845-2.337 2.143-.58 4.023.194 4.514 1.652.492 1.457-1.387 3.284-3.934 3.74-1.915.352-2.547.405-5.99.756-5.68.634-11.43.163-16.933-1.387-8.782-2.32-14.807-8.08-17.688-9.61-2.69-1.362-5.596-2.253-8.59-2.633 2.566 1.323 4.8 3.208 6.535 5.515-6.004-2.073-12.476-2.39-18.654-.913-7.848 1.6-15.537 3.897-22.975 6.868 5.146 1.528 11.663.37 14.49.14 15.37-1.247 20.517 2.126 25.365 3.847 14.965 5.27 20.13.527 21.078 2.108.74 1.124-4.074 3.11-5.39 3.355-6.746 1.265-10.03 0-16.302-1.44 3.11 3.11 9.01 5.27 15.81 5.058 6.765-.158 13.457-1.452 19.795-3.828 4.11-1.825 8.334-3.38 12.647-4.655 1.317-.37 5.99-1.598 7.026-.316.544.72-.352 1.336-1.757 1.968-1.16.492-2.67.984-4.13 1.546-3.318 1.282-9.52 3.513-11.504 5.27 5.732-.825 11.512-1.27 17.302-1.335 7.154.018 14.234 1.45 20.832 4.214 6.92 2.565 12.946 1.67 18.128-2.634 4.308-3.223 6.805-8.32 6.71-13.7-.046-4.87-2.046-9.515-5.55-12.894zm-12.12 27.244c-11.196 0-18.194-12.12-12.596-21.816 5.6-9.696 19.594-9.696 25.192 0 1.277 2.21 1.95 4.72 1.95 7.272-.01 8.025-6.52 14.526-14.545 14.526zM93.033 52.095H62.17L54.23 73.93h6.026l6.025-16.565h7.536c.783-.058 1.334.752.993 1.46-.01.016-.018.033-.027.05l-5.48 15.054h6.024l5.445-15.055c.337-.857 1.136-1.445 2.055-1.51h6.025c.782-.058 1.334.752.993 1.46l-.027.05-5.48 15.054h6.025l6.306-17.32c.895-2.495-.74-4.515-3.637-4.515zM134.978 67.15c-.336.856-1.136 1.444-2.055 1.51h-7.535c-.782.057-1.334-.753-.993-1.46.008-.017.017-.034.027-.05l5.48-15.055h-6.025l-6.288 17.32c-.915 2.494.72 4.514 3.617 4.514h13.543c2.064.015 3.955-1.152 4.866-3.005l6.85-18.812h-6.025zM34.857 67.15l.544-1.512h18.076l1.915-5.27 1.37-3.758c.914-2.495-.72-4.515-3.618-4.515H38.09c-2.065-.016-3.956 1.152-4.867 3.004l-5.27 14.297c-.913 2.494.72 4.514 3.62 4.514h18.812l1.914-5.268H35.804c-.783.036-1.312-.79-.952-1.486l.004-.007zm3.02-8.275c.338-.857 1.137-1.445 2.056-1.51h9.03c.78-.058 1.333.752.992 1.46-.01.016-.018.033-.027.05l-.545 1.51h-12.05zM193.154 52.078l-3.02 8.29h-10.54l3.02-8.29h-6.024l-7.957 21.833h6.025l3.02-8.272h10.54l-3.02 8.273h6.024l7.957-21.832h-6.026M100.972 55.1l-6.85 18.81h6.025l5.392-15.035c.336-.857 1.135-1.445 2.054-1.51h10.54l1.914-5.27H105.75c-2.032.018-3.88 1.18-4.778 3.004zM6.858 55.1l-2.196 6.024c-.913 2.494.72 4.514 3.62 4.514h9.783c.782-.058 1.333.752.993 1.46-.01.016-.018.034-.027.05-.336.858-1.135 1.446-2.055 1.51H1.905L-.01 73.93h18.812c2.064.017 3.955-1.15 4.866-3.003l2.196-6.025c.913-2.494-.72-4.514-3.62-4.514h-9.8c-.782.058-1.334-.752-.993-1.46l.028-.05c.336-.858 1.136-1.446 2.055-1.51h15.053l1.915-5.27H11.725c-2.065-.017-3.955 1.15-4.866 3.003zM149.154 55.1l-2.196 6.024c-.914 2.494.72 4.514 3.618 4.514h9.784c.782-.058 1.334.752.993 1.46-.008.016-.017.034-.027.05-.336.858-1.136 1.446-2.055 1.51h-15.087l-1.915 5.27h18.812c2.064.017 3.955-1.15 4.866-3.003l2.196-6.025c.913-2.494-.72-4.514-3.62-4.514h-9.8c-.782.058-1.334-.752-.993-1.46.007-.016.016-.033.026-.05.336-.858 1.136-1.446 2.055-1.51h15.054l1.915-5.27H154c-2.058-.01-3.94 1.156-4.848 3.003z"/></svg>