<svg width="150" height="162" viewBox="0 0 150 162" xmlns="http://www.w3.org/2000/svg"><linearGradient id="a" gradientUnits="userSpaceOnUse" x1="31.841" y1="120.558" x2="110.24" y2="73.24" gradientTransform="matrix(1.23908 0 0 1.23908 .36 0)"><stop offset="0" stop-color="#FCEE39"/><stop offset="1" stop-color="#F37B3D"/></linearGradient><path d="M147.313 88.965c1.115-.99 1.735-2.353 1.858-3.964.125-3.22-2.23-5.823-5.45-6.07-1.488-.125-2.974.495-4.09 1.362L35.797 137.165c-2.354.992-4.46 2.727-5.824 5.08-3.593 5.95-1.61 13.63 4.46 17.224 4.214 2.477 9.295 2.23 13.26-.25.247-.247.62-.37.867-.62l96.646-67.9c.497-.37 1.86-1.363 2.107-1.735z" fill="url(#a)"/><linearGradient id="b" gradientUnits="userSpaceOnUse" x1="48.361" y1="6.908" x2="119.918" y2="69.555" gradientTransform="matrix(1.23908 0 0 1.23908 .36 0)"><stop offset="0" stop-color="#EF5A6B"/><stop offset=".57" stop-color="#F26F4E"/><stop offset="1" stop-color="#F37B3D"/></linearGradient><path d="M147.56 80.664L68.51 3.098C66.773 1.238 64.295 0 61.445 0c-5.328 0-9.54 4.337-9.54 9.54 0 2.604.99 4.834 2.6 6.568.497.496.992.867 1.488 1.24l83.514 71.494c.99.867 2.23 1.487 3.717 1.61 3.222.124 5.824-2.23 6.07-5.45 0-1.613-.617-3.223-1.733-4.338z" fill="url(#b)"/><linearGradient id="c" gradientUnits="userSpaceOnUse" x1="52.947" y1="63.641" x2="10.538" y2="37.156" gradientTransform="matrix(1.23908 0 0 1.23908 .36 0)"><stop offset="0" stop-color="#7C59A4"/><stop offset=".385" stop-color="#AF4C92"/><stop offset=".765" stop-color="#DC4183"/><stop offset=".957" stop-color="#ED3D7D"/></linearGradient><path d="M71.11 73.725c-.124 0-48.82-38.412-49.81-39.03l-2.232-1.116c-7.186-2.727-15.116.99-17.842 8.177-2.355 6.32.248 13.258 5.7 16.603.866.496 1.61.868 2.478 1.116.496.247 56.254 23.294 56.254 23.294 2.23.992 4.832.372 6.32-1.486 1.858-2.355 1.486-5.7-.87-7.56z" fill="url(#c)"/><linearGradient id="d" gradientUnits="userSpaceOnUse" x1="52.174" y1="3.702" x2="10.771" y2="37.897" gradientTransform="matrix(1.23908 0 0 1.23908 .36 0)"><stop offset="0" stop-color="#EF5A6B"/><stop offset=".364" stop-color="#EE4E72"/><stop offset="1" stop-color="#ED3D7D"/></linearGradient><path d="M61.445 0c-2.107 0-4.09.744-5.7 1.86L6.43 35.065c-.124.124-.248.124-.248.247h-.124c-2.106 1.487-3.84 3.718-4.832 6.32-2.726 7.187.99 15.24 8.178 17.843 4.46 1.734 9.293.867 12.887-1.735.867-.618 1.61-1.238 2.23-1.98L67.394 17.1c2.23-1.736 3.716-4.46 3.716-7.56 0-5.203-4.337-9.54-9.665-9.54z" fill="url(#d)"/><path d="M43.23 46.342h63.194v63.192H43.23z"/><path fill="#FFF" d="M48.683 97.64H72.35v3.965H48.682z"/><g fill="#FFF"><path d="M48.435 62.945l1.858-1.735c.496.62.992.992 1.61.992.745 0 1.116-.496 1.116-1.487v-6.567h2.85v6.567c0 1.24-.373 2.23-.992 2.85-.62.62-1.61.99-2.85.99-1.86.125-2.85-.62-3.593-1.61zM56.49 54.272h8.3v2.354h-5.45v1.61h4.955v2.23H59.34v1.612h5.574v2.478h-8.3l-.125-10.284zM68.508 56.75H65.41v-2.478h9.045v2.478h-3.097v7.806h-2.85V56.75zM48.683 66.91h5.328c1.24 0 2.23.372 2.85.867.372.372.62.992.62 1.735 0 1.24-.62 1.86-1.61 2.354 1.238.372 1.982 1.116 1.982 2.48 0 1.733-1.487 2.848-3.84 2.848h-5.33V66.91zm5.947 3.222c0-.62-.495-.868-1.24-.868h-1.858v1.86h1.735c.868-.125 1.363-.373 1.363-.992zm-.99 2.973h-2.23v1.86h2.23c.866 0 1.362-.373 1.362-.992 0-.62-.496-.868-1.363-.868zM58.347 66.91h4.833c1.61 0 2.602.372 3.345 1.115.62.62.868 1.363.868 2.355 0 1.61-.868 2.602-2.107 3.22l2.478 3.594h-3.22l-2.108-3.097h-1.24v3.097h-2.85V66.91zm4.71 4.956c.99 0 1.486-.495 1.486-1.24 0-.866-.62-1.238-1.487-1.238h-1.86v2.478h1.86z"/><path d="M70.738 66.91h2.726L77.8 77.318h-3.097l-.743-1.858h-3.965l-.744 1.858h-2.973l4.46-10.408zm2.478 6.195l-1.115-2.85-1.114 2.85h2.23zM78.173 66.91h2.85v10.284h-2.85V66.91zM81.766 66.91h2.602l4.213 5.452V66.91h2.85v10.284h-2.477l-4.337-5.575v5.698h-2.85V66.91zM91.68 75.708l1.61-1.86c.99.868 2.106 1.24 3.345 1.24.743 0 1.24-.248 1.24-.743 0-.496-.373-.62-1.736-.992-2.23-.495-3.842-1.115-3.842-3.22 0-1.86 1.487-3.347 3.965-3.347 1.735 0 3.098.496 4.213 1.363L98.99 70.13c-.992-.62-1.983-.992-2.85-.992-.744 0-.992.248-.992.62 0 .496.372.62 1.735.99 2.354.497 3.84 1.24 3.84 3.223 0 2.106-1.61 3.345-4.212 3.345-1.858.124-3.592-.495-4.83-1.61z"/></g></svg>
