<svg width="100" height="100" viewBox="0 0 100 100" xmlns="http://www.w3.org/2000/svg"><title>jetbrains-simple_2</title><path d="M0 0h99.877v99.877H0z"/><path fill="#fff" d="M8.615 81.15H46.07v6.243H8.614zM8.194 26.3l2.907-2.746c.792.954 1.535 1.512 2.558 1.512 1.117 0 1.838-.767 1.838-2.28v-10.3h4.49V22.81c0 2.046-.513 3.49-1.606 4.58-1.07 1.072-2.605 1.653-4.465 1.653-2.838 0-4.558-1.186-5.72-2.744zM21.03 12.485h13.093V16.3h-8.627v2.487h7.814v3.558h-7.814v2.58h8.744v3.838H21.03V12.485M40.02 16.438h-4.86v-3.953h14.256v3.953h-4.884v12.325h-4.51V16.438M19.938 40.336c1.442-.627 2.51-1.744 2.51-3.628v-.046c.025-.99-.353-1.946-1.045-2.652-.954-.93-2.396-1.442-4.442-1.442H8.614v16.28h8.395c3.883 0 6.162-1.7 6.162-4.49v-.046c0-2.21-1.256-3.326-3.232-3.976zm-6.93-4.14h2.953c1.327 0 2.047.49 2.047 1.396v.047c0 .952-.79 1.417-2.162 1.417h-2.837v-2.86zm5.65 7.535c0 .955-.766 1.49-2.162 1.49h-3.488v-3h3.44c1.513 0 2.21.58 2.21 1.465v.046zM47.912 32.452h-4.348L37.482 46.89l-2.545-3.717c2.024-.86 3.35-2.512 3.35-5.023v-.046c0-1.606-.49-2.838-1.442-3.792-1.093-1.092-2.814-1.744-5.302-1.744h-7.698v16.28h4.51v-4.93h2l3.28 4.93h7.742l1.163-2.93h6.302l1.163 2.93h4.837zm-14.138 6c0 1.186-.907 1.93-2.418 1.93h-3v-3.93h2.977c1.49 0 2.442.65 2.442 1.953v.046zm10.092 3.953l1.838-4.604 1.813 4.605h-3.65zM55.377 32.568h4.512v16.28h-4.513zM61.005 32.568h4.21l6.696 8.605v-8.605h4.467v16.28h-3.93l-6.977-8.93v8.93h-4.465v-16.28M76.66 46.43l2.51-3.002c1.628 1.28 3.396 1.954 5.28 1.954 1.232 0 1.883-.418 1.883-1.116v-.047c0-.7-.534-1.047-2.767-1.582-3.465-.79-6.14-1.767-6.14-5.093V37.5c0-3.024 2.395-5.21 6.302-5.21 2.768 0 4.93.743 6.697 2.162l-2.254 3.186c-1.487-1.07-3.115-1.605-4.557-1.605-1.093 0-1.628.443-1.628 1.047v.046c0 .744.56 1.07 2.837 1.58 3.72.814 6.047 2.025 6.047 5.07v.047c0 3.326-2.63 5.303-6.583 5.303-2.883 0-5.604-.907-7.628-2.697z"/></svg>