<?xml version="1.0" encoding="UTF-8"?>
<svg width="175px" height="38px" viewBox="0 0 175 38" version="1.1" xmlns="http://www.w3.org/2000/svg" xmlns:xlink="http://www.w3.org/1999/xlink">
    <!-- Generator: Sketch 41.2 (35397) - http://www.bohemiancoding.com/sketch -->
    <title>Logo</title>
    <desc>Created with Sketch.</desc>
    <defs></defs>
    <g id="Page-1" stroke="none" stroke-width="1" fill="none" fill-rule="evenodd">
        <g id="text-page--desktop" transform="translate(-80.000000, -33.000000)">
            <g id="Group-5" transform="translate(-2.000000, 33.000000)">
                <g id="Logo" transform="translate(82.000000, 0.000000)">
                    <g>
                        <g class="ui-Icon_Logo-Symbol" id="Group-11" transform="translate(0.000000, 3.000000)">
                            <polyline class="ui-Icon_Logo-Part" id="Fill-5" fill="#F9C752" points="47.2986894 0.0958791426 46.7195106 4.40207016 50.1201085 1.75717552 51.5713787 4.18048281 47.167717 5.82229898 51.5024936 7.64841618 50.1219213 10.0662446 46.5840064 7.30386002 47.3843426 11.6972554 44.5724404 11.7030386 45.0961787 7.15364936 41.686517 9.92501315 40.280717 7.44874406 44.3414638 6.00431716 40.2866085 4.36645791 41.7010191 1.88927568 45.2794191 4.72805924 44.4786298 0.0966400882 47.2986894 0.0958791426"></polyline>
                            <polyline class="ui-Icon_Logo-Part" id="Fill-6" fill="currentColor" points="34.210066 0.141840255 20.4998149 0.141840255 0 34.899247 13.7608574 34.899247 34.210066 0.141840255"></polyline>
                        </g>
                        <path class="ui-Icon_Logo-Part" d="M72.1460638,10.3329301 C72.1460638,8.49098521 70.913534,7.26981975 69.4551638,7.26981975 C67.9964915,7.26981975 66.7843553,8.49098521 66.7843553,10.3743255 C66.7843553,12.2162704 67.9964915,13.4374358 69.4551638,13.4374358 C70.913534,13.4374358 72.1460638,12.2368159 72.1460638,10.3329301 L72.1460638,10.3329301 Z M63.7029553,4.80709548 L66.8257468,4.80709548 L66.8257468,6.40066771 C67.5857489,5.36593392 68.6332255,4.60027048 70.2562553,4.60027048 C72.8240383,4.60027048 75.2685532,6.62834263 75.2685532,10.3743255 C75.2685532,14.0787608 72.8649766,16.1069851 70.2562553,16.1069851 C68.5921362,16.1069851 67.5650532,15.3411695 66.8257468,14.4513197 L66.8257468,19.2113387 L63.7029553,19.2113387 L63.7029553,4.80709548 L63.7029553,4.80709548 Z" id="Fill-7" fill="#1E1E1C"></path>
                        <path class="ui-Icon_Logo-Part" d="M77.4144149,15.9000079 L80.5369043,15.9000079 L80.5369043,4.80709548 L77.4144149,4.80709548 L77.4144149,15.9000079 Z M77.3320851,3.58608221 L80.6189319,3.58608221 L80.6189319,0.792194436 L77.3320851,0.792194436 L77.3320851,3.58608221 Z" id="Fill-8" fill="#1E1E1C"></path>
                        <path class="ui-Icon_Logo-Part" d="M83.6923255,12.7542589 L83.6923255,7.49749466 L82.377617,7.49749466 L82.377617,4.80709548 L83.6923255,4.80709548 L83.6923255,1.97181227 L86.8148149,1.97181227 L86.8148149,4.80709548 L89.4032936,4.80709548 L89.4032936,7.49749466 L86.8148149,7.49749466 L86.8148149,12.2368159 C86.8148149,12.9612361 87.1231362,13.3130973 87.8215043,13.3130973 C88.3966043,13.3130973 88.9103723,13.1683655 89.3623553,12.9198407 L89.3623553,15.4446581 C88.7049255,15.8379147 87.9446213,16.0864396 86.8971447,16.0864396 C84.9864894,16.0864396 83.6923255,15.3204718 83.6923255,12.7542589" id="Fill-9" fill="#1E1E1C"></path>
                        <path class="ui-Icon_Logo-Part" d="M98.5474894,9.48432356 C98.3627383,8.077183 97.5409511,7.1250879 96.2262426,7.1250879 C94.9319277,7.1250879 94.0898979,8.0563331 93.8432106,9.48432356 L98.5474894,9.48432356 L98.5474894,9.48432356 Z M90.7823553,10.3743255 C90.7823553,7.20803097 93.0214234,4.60027048 96.2262426,4.60027048 C99.9034383,4.60027048 101.587951,7.47694913 101.587951,10.6226981 C101.587951,10.8709186 101.567255,11.1608389 101.546862,11.4506069 L93.8844511,11.4506069 C94.1924702,12.8785974 95.1786149,13.6234109 96.5753511,13.6234109 C97.6229787,13.6234109 98.383434,13.2922474 99.2461596,12.4853407 L101.033245,14.0787608 C100.006162,15.3620194 98.5270957,16.1485327 96.5342617,16.1485327 C93.2271723,16.1485327 90.7823553,13.8098426 90.7823553,10.3743255 L90.7823553,10.3743255 Z" id="Fill-10" fill="#1E1E1C"></path>
                        <path class="ui-Icon_Logo-Part" d="M103.631089,4.80709548 L106.753277,4.80709548 L106.753277,7.04214483 C107.390313,5.51066576 108.417396,4.51732741 110.266115,4.60027048 L110.266115,7.89075134 L110.101757,7.89075134 C108.027047,7.89075134 106.753277,9.15316005 106.753277,11.8021638 L106.753277,15.9000079 L103.631089,15.9000079 L103.631089,4.80709548" id="Fill-11" fill="#1E1E1C"></path>
                        <path class="ui-Icon_Logo-Part" d="M111.099081,10.3534756 C111.099081,7.18718106 113.502506,4.57942057 116.871683,4.57942057 C118.946394,4.57942057 120.220164,5.36562954 121.247247,6.52500622 L119.41877,8.38749661 C118.741098,7.74571511 118.083668,7.29066966 116.850987,7.29066966 C115.289894,7.29066966 114.180481,8.67696031 114.180481,10.3534756 C114.180481,12.0503842 115.269198,13.4165859 116.974255,13.4165859 C118.022034,13.4165859 118.741098,12.9612361 119.5011,12.2368159 L121.329274,14.0993063 C120.261102,15.2790763 119.028421,16.1276828 116.830594,16.1276828 C113.523202,16.1276828 111.099081,13.5613178 111.099081,10.3534756" id="Fill-12" fill="#1E1E1C"></path>
                        <path class="ui-Icon_Logo-Part" d="M122.622381,14.4307742 L123.957785,12.3610022 C125.149226,13.2301543 126.4023,13.6855041 127.429534,13.6855041 C128.333349,13.6855041 128.744394,13.3544928 128.744394,12.8163521 C128.744394,12.1333273 127.675919,11.9056524 126.463934,11.5332456 C124.923234,11.0778958 123.177087,10.3534756 123.177087,8.15982169 C123.177087,5.90392244 124.984868,4.64166592 127.203543,4.64166592 C128.600279,4.64166592 130.120434,5.11740909 131.312177,5.92477235 L130.120434,8.09772853 C129.031717,7.45625141 127.943,7.06299474 127.141909,7.06299474 C126.381906,7.06299474 125.991557,7.39400607 125.991557,7.87020581 C125.991557,8.49098521 127.039185,8.78075328 128.230626,9.19485987 C129.771326,9.71199848 131.558562,10.4571164 131.558562,12.526584 C131.558562,14.9893082 129.730387,16.1069851 127.347355,16.1069851 C125.806504,16.1069851 124.081053,15.5896943 122.622381,14.4307742" id="Fill-13" fill="#1E1E1C"></path>
                        <path class="ui-Icon_Logo-Part" d="M132.64607,14.4307742 L133.981474,12.3610022 C135.172764,13.2301543 136.42614,13.6855041 137.452921,13.6855041 C138.357038,13.6855041 138.76763,13.3544928 138.76763,12.8163521 C138.76763,12.1333273 137.699609,11.9056524 136.487623,11.5332456 C134.946772,11.0778958 133.200777,10.3534756 133.200777,8.15982169 C133.200777,5.90392244 135.008709,4.64166592 137.22693,4.64166592 C138.62427,4.64166592 140.144426,5.11740909 141.335715,5.92477235 L140.144426,8.09772853 C139.055709,7.45625141 137.96684,7.06299474 137.165598,7.06299474 C136.405596,7.06299474 136.014945,7.39400607 136.014945,7.87020581 C136.014945,8.49098521 137.062874,8.78075328 138.254315,9.19485987 C139.795015,9.71199848 141.582402,10.4571164 141.582402,12.526584 C141.582402,14.9893082 139.753774,16.1069851 137.370894,16.1069851 C135.830194,16.1069851 134.104743,15.5896943 132.64607,14.4307742" id="Fill-14" fill="#1E1E1C"></path>
                        <path class="ui-Icon_Logo-Part" d="M63.1689447,31.8600457 C63.1689447,28.693599 65.5723702,26.0861429 68.9415468,26.0861429 C71.0162574,26.0861429 72.2900277,26.8726562 73.3171106,28.031272 L71.488634,29.8940668 C70.8109617,29.2522853 70.1535319,28.7972398 68.9208511,28.7972398 C67.3597574,28.7972398 66.2503447,30.183987 66.2503447,31.8600457 C66.2503447,33.5571066 67.3390617,34.9231561 69.0441191,34.9231561 C70.0918979,34.9231561 70.8109617,34.4678062 71.5709638,33.743386 L73.3994404,35.6060286 C72.330966,36.7857986 71.0985872,37.6341008 68.9004574,37.6341008 C65.593066,37.6341008 63.1689447,35.0678879 63.1689447,31.8600457" id="Fill-15" fill="#1E1E1C"></path>
                        <path class="ui-Icon_Logo-Part" d="M83.0533255,31.8600457 C83.0533255,30.2252303 81.8822787,28.7972398 80.1568277,28.7972398 C78.3697426,28.7972398 77.3014191,30.183987 77.3014191,31.8600457 C77.3014191,33.4951656 78.472466,34.9231561 80.197917,34.9231561 C81.9853043,34.9231561 83.0533255,33.536561 83.0533255,31.8600457 L83.0533255,31.8600457 Z M74.2198681,31.8600457 C74.2198681,28.6730535 76.7674085,26.0861429 80.197917,26.0861429 C83.6080319,26.0861429 86.1347255,28.631658 86.1347255,31.8600457 C86.1347255,35.0471902 83.5873362,37.6341008 80.1568277,37.6341008 C76.7467128,37.6341008 74.2198681,35.0887378 74.2198681,31.8600457 L74.2198681,31.8600457 Z" id="Fill-16" fill="#1E1E1C"></path>
                        <path class="ui-Icon_Logo-Part" d="M87.958217,26.2929679 L91.0804043,26.2929679 L91.0804043,27.8659946 C91.7994681,26.934445 92.7238277,26.0861429 94.3057681,26.0861429 C96.6679532,26.0861429 98.0442957,27.6588652 98.0442957,30.2043804 L98.0442957,37.3858803 L94.9218064,37.3858803 L94.9218064,31.1978709 C94.9218064,29.7077873 94.2234383,28.9419716 93.0321489,28.9419716 C91.8407085,28.9419716 91.0804043,29.7077873 91.0804043,31.1978709 L91.0804043,37.3858803 L87.958217,37.3858803 L87.958217,26.2929679 L117.734375,28.5859375" id="Fill-17" fill="#1E1E1C"></path>
                        <path class="ui-Icon_Logo-Part" d="M101.024332,28.9833671 L99.730017,28.9833671 L99.730017,26.3964565 L101.024332,26.3964565 L101.024332,25.6928862 C101.024332,24.4717208 101.332351,23.581871 101.907753,23.002487 C102.482702,22.4227987 103.325185,22.1330306 104.434145,22.1330306 C105.420289,22.1330306 106.077568,22.257217 106.65297,22.4436486 L106.65297,25.0511047 C106.200987,24.8858273 105.769549,24.7820344 105.235538,24.7820344 C104.516474,24.7820344 104.105581,25.1548977 104.105581,25.9826543 L104.105581,26.4173064 L106.632274,26.4173064 L106.632274,28.9833671 L104.146821,28.9833671 L104.146821,37.3858803 L101.024332,37.3858803 L101.024332,28.9833671" id="Fill-18" fill="#1E1E1C"></path>
                        <path class="ui-Icon_Logo-Part" d="M115.234151,30.970196 C115.049098,29.5630554 114.227462,28.6109603 112.912753,28.6109603 C111.618589,28.6109603 110.776257,29.5422055 110.52957,30.970196 L115.234151,30.970196 L115.234151,30.970196 Z M107.468715,31.8600457 C107.468715,28.693599 109.707934,26.0861429 112.912753,26.0861429 C116.589798,26.0861429 118.274311,28.9628216 118.274311,32.1085706 C118.274311,32.356791 118.253615,32.6465591 118.233221,32.9364794 L110.570962,32.9364794 C110.878981,34.3643176 111.864974,35.1092834 113.262013,35.1092834 C114.309489,35.1092834 115.069491,34.7781198 115.932519,33.971061 L117.719604,35.5646332 C116.692521,36.8478918 115.213455,37.6341008 113.220772,37.6341008 C109.913532,37.6341008 107.468715,35.295715 107.468715,31.8600457 L107.468715,31.8600457 Z" id="Fill-19" fill="#1E1E1C"></path>
                        <path class="ui-Icon_Logo-Part" d="M120.317147,26.2929679 L123.439938,26.2929679 L123.439938,28.5283216 C124.076672,26.9965382 125.103755,26.0031998 126.952474,26.0861429 L126.952474,29.3766238 L126.788117,29.3766238 C124.713406,29.3766238 123.439938,30.6390325 123.439938,33.2880362 L123.439938,37.3858803 L120.317147,37.3858803 L120.317147,26.2929679" id="Fill-20" fill="#1E1E1C"></path>
                        <path class="ui-Icon_Logo-Part" d="M135.749979,30.970196 C135.564623,29.5630554 134.743289,28.6109603 133.42843,28.6109603 C132.134417,28.6109603 131.291783,29.5422055 131.045398,30.970196 L135.749979,30.970196 L135.749979,30.970196 Z M127.984543,31.8600457 C127.984543,28.693599 130.223762,26.0861429 133.42843,26.0861429 C137.105323,26.0861429 138.790138,28.9628216 138.790138,32.1085706 C138.790138,32.356791 138.769443,32.6465591 138.748747,32.9364794 L131.086638,32.9364794 C131.394506,34.3643176 132.381104,35.1092834 133.77784,35.1092834 C134.825317,35.1092834 135.585319,34.7781198 136.448045,33.971061 L138.235432,35.5646332 C137.208047,36.8478918 135.729283,37.6341008 133.7366,37.6341008 C130.42936,37.6341008 127.984543,35.295715 127.984543,31.8600457 L127.984543,31.8600457 Z" id="Fill-21" fill="#1E1E1C"></path>
                        <path class="ui-Icon_Logo-Part" d="M140.832974,26.2929679 L143.955766,26.2929679 L143.955766,27.8659946 C144.674528,26.934445 145.599189,26.0861429 147.180677,26.0861429 C149.543617,26.0861429 150.919809,27.6588652 150.919809,30.2043804 L150.919809,37.3858803 L147.797319,37.3858803 L147.797319,31.1978709 C147.797319,29.7077873 147.098649,28.9419716 145.907209,28.9419716 C144.715768,28.9419716 143.955766,29.7077873 143.955766,31.1978709 L143.955766,37.3858803 L140.832974,37.3858803 L140.832974,26.2929679" id="Fill-22" fill="#1E1E1C"></path>
                        <path class="ui-Icon_Logo-Part" d="M152.842851,31.8600457 C152.842851,28.693599 155.246277,26.0861429 158.615,26.0861429 C160.690617,26.0861429 161.964085,26.8726562 162.991319,28.031272 L161.163447,29.8940668 C160.48517,29.2522853 159.828043,28.7972398 158.595362,28.7972398 C157.033362,28.7972398 155.924553,30.183987 155.924553,31.8600457 C155.924553,33.5571066 157.013723,34.9231561 158.717723,34.9231561 C159.766106,34.9231561 160.48517,34.4678062 161.245021,33.743386 L163.074404,35.6060286 C162.004872,36.7857986 160.772191,37.6341008 158.574213,37.6341008 C155.267426,37.6341008 152.842851,35.0678879 152.842851,31.8600457" id="Fill-23" fill="#1E1E1C"></path>
                        <path class="ui-Icon_Logo-Part" d="M171.728851,30.970196 C171.544553,29.5630554 170.722766,28.6109603 169.407,28.6109603 C168.113894,28.6109603 167.270957,29.5422055 167.024723,30.970196 L171.728851,30.970196 L171.728851,30.970196 Z M163.96417,31.8600457 C163.96417,28.693599 166.202936,26.0861429 169.407,26.0861429 C173.085404,26.0861429 174.769766,28.9628216 174.769766,32.1085706 C174.769766,32.356791 174.748617,32.6465591 174.728979,32.9364794 L167.065511,32.9364794 C167.373681,34.3643176 168.360128,35.1092834 169.757468,35.1092834 C170.80434,35.1092834 171.565702,34.7781198 172.428277,33.971061 L174.215362,35.5646332 C173.188128,36.8478918 171.709213,37.6341008 169.716681,37.6341008 C166.408383,37.6341008 163.96417,35.295715 163.96417,31.8600457 L163.96417,31.8600457 Z" id="Fill-24" fill="#1E1E1C"></path>
                    </g>
                </g>
            </g>
        </g>
    </g>
</svg>