<?xml version="1.0" encoding="UTF-8"?>
<svg width="184px" height="63px" viewBox="0 0 184 63" version="1.1" xmlns="http://www.w3.org/2000/svg" xmlns:xlink="http://www.w3.org/1999/xlink">
    <!-- Generator: Sketch 42 (36781) - http://www.bohemiancoding.com/sketch -->
    <title>logo/ticket</title>
    <desc>Created with Sketch.</desc>
    <defs></defs>
    <g id="Page-1" stroke="none" stroke-width="1" fill="none" fill-rule="evenodd">
        <g id="main-page--desktop" transform="translate(-956.000000, -4836.000000)">
            <g id="badge--fill" transform="translate(856.000000, 4749.000000)">
                <g id="logo/ticket" transform="translate(100.371648, 87.328165)">
                    <g id="Group-11" transform="translate(0.000000, 0.375559)">
                        <polyline id="Fill-5" fill="#F9C752" points="51.4081953 0.103523754 50.7786951 4.75305489 54.474751 1.89727819 56.0521136 4.51379999 51.2658435 6.28652103 55.9772435 8.25823773 54.4767213 10.8688439 50.6314177 7.88620951 51.5012904 12.629898 48.4450786 12.6361423 49.0143214 7.7240223 45.3084142 10.7163518 43.7804725 8.04264541 48.1940338 6.48305184 43.7868758 4.71460321 45.3241763 2.03991092 49.2134825 5.10503565 48.3431173 0.104345371 51.4081953 0.103523754"></polyline>
                        <polyline id="Fill-6" fill="#00E2B5" points="37.1823781 0.153149426 22.2809237 0.153149426 0 37.6818248 14.9564577 37.6818248 37.1823781 0.153149426"></polyline>
                    </g>
                    <g id="Group-5" transform="translate(60.519685, 21.477273)" fill="#303B40">
                        <path d="M10.6900031,11.1567926 C10.6900031,9.16798626 9.35038598,7.84945515 7.76530652,7.84945515 C6.17989869,7.84945515 4.86244711,9.16798626 4.86244711,11.2014886 C4.86244711,13.1902949 6.17989869,14.508826 7.76530652,14.508826 C9.35038598,14.508826 10.6900031,13.2124786 10.6900031,11.1567926 L10.6900031,11.1567926 Z M1.51332233,5.19037359 L4.90743487,5.19037359 L4.90743487,6.91100411 C5.73346912,5.79376918 6.87195482,4.96705806 8.63600016,4.96705806 C11.4268828,4.96705806 14.0837872,7.15683194 14.0837872,11.2014886 C14.0837872,15.2012849 11.4713779,17.3912231 8.63600016,17.3912231 C6.82729545,17.3912231 5.71097525,16.5643477 4.90743487,15.6035486 L4.90743487,20.7430922 L1.51332233,20.7430922 L1.51332233,5.19037359 L1.51332233,5.19037359 Z" id="Fill-7"></path>
                        <path d="M16.4160903,17.1677433 L19.8098744,17.1677433 L19.8098744,5.19037359 L16.4160903,5.19037359 L16.4160903,17.1677433 Z M16.3266073,3.8720068 L19.899029,3.8720068 L19.899029,0.85535748 L16.3266073,0.85535748 L16.3266073,3.8720068 Z" id="Fill-8"></path>
                        <path d="M23.2394518,13.7711782 L23.2394518,8.09528299 L21.8105159,8.09528299 L21.8105159,5.19037359 L23.2394518,5.19037359 L23.2394518,2.1290283 L26.6332359,2.1290283 L26.6332359,5.19037359 L29.4466124,5.19037359 L29.4466124,8.09528299 L26.6332359,8.09528299 L26.6332359,13.2124786 C26.6332359,13.994658 26.9683454,14.3745738 27.7273906,14.3745738 C28.3524577,14.3745738 28.9108641,14.2183022 29.4021172,13.9499621 L29.4021172,16.6760876 C28.6875672,17.1006993 27.8612046,17.3690394 26.7227189,17.3690394 C24.6460579,17.3690394 23.2394518,16.5419997 23.2394518,13.7711782" id="Fill-9"></path>
                        <path d="M39.3852937,10.2405252 C39.1844907,8.72119089 38.2913032,7.69318358 36.8623674,7.69318358 C35.4555971,7.69318358 34.5404082,8.69867858 34.2722878,10.2405252 L39.3852937,10.2405252 L39.3852937,10.2405252 Z M30.9454927,11.2014886 C30.9454927,7.78273984 33.3791003,4.96705806 36.8623674,4.96705806 C40.8590531,4.96705806 42.6899233,8.07309933 42.6899233,11.4696644 C42.6899233,11.7376759 42.6674294,12.050712 42.6452639,12.3635838 L34.3171114,12.3635838 C34.6518925,13.9054304 35.7237175,14.7096292 37.2418079,14.7096292 C38.3804578,14.7096292 39.2069846,14.3520615 40.1446673,13.4808187 L42.0870218,15.2012849 C40.9707016,16.58686 39.3631282,17.4360834 37.1971485,17.4360834 C33.6027255,17.4360834 30.9454927,14.9109254 30.9454927,11.2014886 L30.9454927,11.2014886 Z" id="Fill-10"></path>
                        <path d="M44.9105779,5.19037359 L48.3040337,5.19037359 L48.3040337,7.60362732 C48.9964182,5.95004075 50.1127384,4.8775018 52.122082,4.96705806 L52.122082,8.5198947 L51.9434444,8.5198947 C49.6884744,8.5198947 48.3040337,9.88295746 48.3040337,12.7431709 L48.3040337,17.1677433 L44.9105779,17.1677433 L44.9105779,5.19037359" id="Fill-11"></path>
                        <path d="M53.0274194,11.1789763 C53.0274194,7.76022754 55.6396645,4.94454576 59.3015691,4.94454576 C61.5565392,4.94454576 62.9409799,5.79344054 64.0573001,7.04525634 L62.0699579,9.05624634 C61.3334065,8.36329448 60.6188565,7.87196746 59.2790753,7.87196746 C57.5823474,7.87196746 56.3765442,9.36878948 56.3765442,11.1789763 C56.3765442,13.0111824 57.5598535,14.4863137 59.4130534,14.4863137 C60.5518675,14.4863137 61.3334065,13.994658 62.1594408,13.2124786 L64.1464546,15.2234686 C62.9854751,16.4973037 61.6456938,17.4135711 59.2569098,17.4135711 C55.6621584,17.4135711 53.0274194,14.6425853 53.0274194,11.1789763" id="Fill-12"></path>
                        <path d="M65.5519114,15.581365 L67.0033411,13.3465665 C68.2982989,14.2850175 69.6602456,14.7766732 70.77673,14.7766732 C71.7590721,14.7766732 72.20583,14.4192698 72.20583,13.8382221 C72.20583,13.1007386 71.0445221,12.8549108 69.7272347,12.4528114 C68.0526723,11.9611557 66.154813,11.1789763 66.154813,8.81041851 C66.154813,6.37465247 68.1196613,5.01175403 70.5311034,5.01175403 C72.0491938,5.01175403 73.7014265,5.52542904 74.9967126,6.39716478 L73.7014265,8.74337455 C72.5181173,8.05075134 71.334808,7.62613963 70.4641144,7.62613963 C69.6380801,7.62613963 69.213816,7.98354306 69.213816,8.49771104 C69.213816,9.16798626 70.3524659,9.48085805 71.6474236,9.92798208 C73.321986,10.4863531 75.2645047,11.2908805 75.2645047,13.5253504 C75.2645047,16.1844319 73.2774908,17.3912231 70.6874113,17.3912231 C69.0126847,17.3912231 67.1373193,16.8326878 65.5519114,15.581365" id="Fill-13"></path>
                        <path d="M76.4465004,15.581365 L77.8979301,13.3465665 C79.1927236,14.2850175 80.5549988,14.7766732 81.6709906,14.7766732 C82.6536611,14.7766732 83.0999264,14.4192698 83.0999264,13.8382221 C83.0999264,13.1007386 81.9391111,12.8549108 80.6218237,12.4528114 C78.9470971,11.9611557 77.049402,11.1789763 77.049402,8.81041851 C77.049402,6.37465247 79.0144145,5.01175403 81.425364,5.01175403 C82.9441112,5.01175403 84.5963439,5.52542904 85.8911374,6.39716478 L84.5963439,8.74337455 C83.4130346,8.05075134 82.2295612,7.62613963 81.3587034,7.62613963 C80.5326691,7.62613963 80.1080767,7.98354306 80.1080767,8.49771104 C80.1080767,9.16798626 81.2470549,9.48085805 82.5420126,9.92798208 C84.216575,10.4863531 86.1592579,11.2908805 86.1592579,13.5253504 C86.1592579,16.1844319 84.1717515,17.3912231 81.5818361,17.3912231 C79.9072737,17.3912231 78.0319083,16.8326878 76.4465004,15.581365" id="Fill-14"></path>
                        <path d="M0.932914633,34.4003027 C0.932914633,30.9813897 3.54515972,28.1660366 7.20706433,28.1660366 C9.46203442,28.1660366 10.8464751,29.01526 11.9627953,30.2662542 L9.97545305,32.2775728 C9.23890173,31.584621 8.52435172,31.0932939 7.18457045,31.0932939 C5.48784256,31.0932939 4.28203942,32.5906089 4.28203942,34.4003027 C4.28203942,36.2326732 5.46534868,37.7076402 7.31854858,37.7076402 C8.45736265,37.7076402 9.23890173,37.2159845 10.064936,36.4338051 L12.0522782,38.4449594 C10.8909702,39.7187945 9.55151736,40.6347333 7.16240495,40.6347333 C3.5676536,40.6347333 0.932914633,37.8639118 0.932914633,34.4003027" id="Fill-15"></path>
                        <path d="M22.5449328,34.4003027 C22.5449328,32.6351406 21.2721406,31.0932939 19.3967752,31.0932939 C17.4544207,31.0932939 16.293277,32.5906089 16.293277,34.4003027 C16.293277,36.1657936 17.5660692,37.7076402 19.4414346,37.7076402 C21.3841174,37.7076402 22.5449328,36.2104895 22.5449328,34.4003027 L22.5449328,34.4003027 Z M12.943988,34.4003027 C12.943988,30.959206 15.7128693,28.1660366 19.4414346,28.1660366 C23.1478344,28.1660366 25.8940576,30.9145101 25.8940576,34.4003027 C25.8940576,37.8415638 23.1253405,40.6347333 19.3967752,40.6347333 C15.6903754,40.6347333 12.943988,37.8864241 12.943988,34.4003027 L12.943988,34.4003027 Z" id="Fill-16"></path>
                        <path d="M27.8759816,28.3893521 L31.2694374,28.3893521 L31.2694374,30.0877989 C32.0509764,29.0819753 33.0556482,28.1660366 34.7750341,28.1660366 C37.3424557,28.1660366 38.8383806,29.8641548 38.8383806,32.6126283 L38.8383806,40.3667218 L35.4445964,40.3667218 L35.4445964,33.6853315 C35.4445964,32.076441 34.6855512,31.2495655 33.3907577,31.2495655 C32.0958,31.2495655 31.2694374,32.076441 31.2694374,33.6853315 L31.2694374,40.3667218 L27.8759816,40.3667218 L27.8759816,28.3893521" id="Fill-17"></path>
                        <path d="M42.0773346,31.2942615 L40.6705643,31.2942615 L40.6705643,28.501092 L42.0773346,28.501092 L42.0773346,27.7414248 C42.0773346,26.4228937 42.4121157,25.4620947 43.0375112,24.8365154 C43.6624141,24.2106075 44.5780955,23.8977358 45.783406,23.8977358 C46.855231,23.8977358 47.5696169,24.0318237 48.1950123,24.2331199 L48.1950123,27.048473 C47.7037592,26.8700178 47.2348357,26.7579492 46.654428,26.7579492 C45.872889,26.7579492 45.4262952,27.1605416 45.4262952,28.0542966 L45.4262952,28.5236043 L48.1725184,28.5236043 L48.1725184,31.2942615 L45.4711188,31.2942615 L45.4711188,40.3667218 L42.0773346,40.3667218 L42.0773346,31.2942615" id="Fill-18"></path>
                        <path d="M57.5217617,33.4395037 C57.3206303,31.9201694 56.427607,30.8921621 54.9986711,30.8921621 C53.592065,30.8921621 52.6765478,31.8976571 52.4084274,33.4395037 L57.5217617,33.4395037 L57.5217617,33.4395037 Z M49.0816323,34.4003027 C49.0816323,30.9813897 51.515404,28.1660366 54.9986711,28.1660366 C58.9951927,28.1660366 60.8260629,31.2720778 60.8260629,34.6686429 C60.8260629,34.9366544 60.803569,35.2495262 60.7814035,35.5625623 L52.4534151,35.5625623 C52.7881962,37.1042446 53.8598571,37.9086077 55.3782758,37.9086077 C56.5167615,37.9086077 57.3427958,37.55104 58.2808069,36.6796329 L60.2231613,38.4002634 C59.1068411,39.7858385 57.4992678,40.6347333 55.3334523,40.6347333 C51.7388651,40.6347333 49.0816323,38.1099039 49.0816323,34.4003027 L49.0816323,34.4003027 Z" id="Fill-19"></path>
                        <path d="M63.0463891,28.3893521 L66.4405017,28.3893521 L66.4405017,30.8029345 C67.1325578,29.1490193 68.248878,28.0764803 70.2582215,28.1660366 L70.2582215,31.7188732 L70.079584,31.7188732 C67.8246139,31.7188732 66.4405017,33.081936 66.4405017,35.9421494 L66.4405017,40.3667218 L63.0463891,40.3667218 L63.0463891,28.3893521" id="Fill-20"></path>
                        <path d="M79.8200894,33.4395037 C79.6186296,31.9201694 78.7259347,30.8921621 77.2968346,30.8921621 C75.8903927,30.8921621 74.9745471,31.8976571 74.7067551,33.4395037 L79.8200894,33.4395037 L79.8200894,33.4395037 Z M71.37996,34.4003027 C71.37996,30.9813897 73.8137317,28.1660366 77.2968346,28.1660366 C81.293192,28.1660366 83.1243906,31.2720778 83.1243906,34.6686429 C83.1243906,34.9366544 83.1018967,35.2495262 83.0794028,35.5625623 L74.7515786,35.5625623 C75.0861956,37.1042446 76.1585131,37.9086077 77.6766035,37.9086077 C78.8150892,37.9086077 79.6411235,37.55104 80.5788062,36.6796329 L82.521489,38.4002634 C81.4048404,39.7858385 79.7975955,40.6347333 77.63178,40.6347333 C74.0371928,40.6347333 71.37996,38.1099039 71.37996,34.4003027 L71.37996,34.4003027 Z" id="Fill-21"></path>
                        <path d="M85.3447168,28.3893521 L88.7388294,28.3893521 L88.7388294,30.0877989 C89.5200401,29.0819753 90.5250402,28.1660366 92.2439336,28.1660366 C94.8121761,28.1660366 96.3079368,29.8641548 96.3079368,32.6126283 L96.3079368,40.3667218 L92.9141526,40.3667218 L92.9141526,33.6853315 C92.9141526,32.076441 92.154779,31.2495655 90.8598213,31.2495655 C89.5648636,31.2495655 88.7388294,32.076441 88.7388294,33.6853315 L88.7388294,40.3667218 L85.3447168,40.3667218 L85.3447168,28.3893521" id="Fill-22"></path>
                        <path d="M98.3980612,34.4003027 C98.3980612,30.9813897 101.010306,28.1660366 104.671718,28.1660366 C106.927674,28.1660366 108.311786,29.01526 109.42827,30.2662542 L107.441585,32.2775728 C106.704377,31.584621 105.990155,31.0932939 104.650374,31.0932939 C102.952661,31.0932939 101.747514,32.5906089 101.747514,34.4003027 C101.747514,36.2326732 102.931316,37.7076402 104.783367,37.7076402 C105.922838,37.7076402 106.704377,37.2159845 107.530247,36.4338051 L109.518574,38.4449594 C108.356117,39.7187945 107.016336,40.6347333 104.627387,40.6347333 C101.033293,40.6347333 98.3980612,37.8639118 98.3980612,34.4003027" id="Fill-23"></path>
                        <path d="M118.924955,33.4395037 C118.724645,31.9201694 117.831457,30.8921621 116.401372,30.8921621 C114.995915,30.8921621 114.079741,31.8976571 113.812113,33.4395037 L118.924955,33.4395037 L118.924955,33.4395037 Z M110.485647,34.4003027 C110.485647,30.9813897 112.918926,28.1660366 116.401372,28.1660366 C120.399371,28.1660366 122.230077,31.2720778 122.230077,34.6686429 C122.230077,34.9366544 122.207091,35.2495262 122.185746,35.5625623 L113.856444,35.5625623 C114.19139,37.1042446 115.263543,37.9086077 116.78229,37.9086077 C117.920119,37.9086077 118.747631,37.55104 119.68515,36.6796329 L121.627504,38.4002634 C120.51102,39.7858385 118.903611,40.6347333 116.737959,40.6347333 C113.142223,40.6347333 110.485647,38.1099039 110.485647,34.4003027 L110.485647,34.4003027 Z" id="Fill-24"></path>
                    </g>
                </g>
            </g>
        </g>
    </g>
</svg>