<svg width="212.6" height="22.4" viewBox="0 0 212.6 22.4" xmlns="http://www.w3.org/2000/svg"><title>logo-small</title><path fill="#b84e2b" d="M147.2 3.8h-19l-4.9 13.5h3.7L130.7 7h4.6c.5 0 .8.4.6.9l-3.4 9.3h3.7l3.4-9.3c.2-.5.8-.9 1.3-.9h3.7c.5 0 .8.4.6.9l-3.4 9.3h3.7l3.9-10.7c.6-1.5-.4-2.7-2.2-2.7zm25.8 9.3c-.2.5-.8.9-1.3.9h-4.6c-.5 0-.8-.4-.6-.9l3.4-9.3h-3.7l-3.9 10.7c-.6 1.5.4 2.8 2.2 2.8h8.4c1.3 0 2.6-.8 3-1.9l4.2-11.6h-3.7l-3.4 9.3zm-61.7 0l.3-.9h11.1l1.2-3.2.8-2.3c.6-1.5-.4-2.8-2.2-2.8h-9.3c-1.3 0-2.6.8-3 1.9l-3.2 8.8c-.6 1.5.4 2.8 2.2 2.8H121l1.2-3.2H112c-.6-.2-.8-.6-.7-1.1zm1.9-5.1c.2-.5.8-.9 1.3-.9h5.6c.5 0 .8.4.6.9l-.3.9H113l.2-.9zm95.7-4.2L207 8.9h-6.5l1.9-5.1h-3.7l-4.9 13.5h3.7l1.9-5.2h6.4l-1.8 5.2h3.7l4.9-13.5h-3.7zm-56.8 1.9l-4.2 11.6h3.7L155 8c.2-.5.8-.9 1.3-.9h6.5l1.2-3.2h-8.8c-1.4-.1-2.7.7-3.1 1.8zm-58 0l-1.4 3.7c-.6 1.5.4 2.8 2.2 2.8h6c.5 0 .8.4.6.9-.2.5-.8.9-1.3.9h-9.3l-1.2 3.2h11.6c1.3 0 2.6-.8 3-1.9l1.4-3.7c.6-1.5-.4-2.8-2.2-2.8h-6c-.5.1-.7-.3-.5-.8.1-.5.7-1 1.2-1h9.3l1.2-3.2H97.1c-1.3 0-2.6.8-3 1.9zm87.7 0l-1.4 3.7c-.6 1.5.4 2.8 2.2 2.8h6c.5 0 .8.4.6.9-.2.5-.8.9-1.3.9h-9.3l-1.2 3.2H189c1.3 0 2.6-.8 3-1.9l1.4-3.7c.6-1.5-.4-2.8-2.2-2.8h-6c-.5 0-.8-.4-.6-.9.2-.5.8-.9 1.3-.9h9.3l1.2-3.2h-11.6c-1.3 0-2.7.8-3 1.9zm-103-2.6C76.2.4 72.6-.5 68 .3c0 0-5.5 1.3-10.4 1.4-2.1 0-3.8-.6-5.3-.9.8 1.3 2 2.2 3.4 2.7C57 4 58.8 4.7 58 6c-.9 1.4-2.3.2-2.7-.1-1.3-1-1.9-1.7-4.3-3.1-2.6-1.5-6.2-1.6-9.8-1.2 0 0 3 .6 4.3 2 0 0-5.7-1.2-9.5.7 5.4.2 11.4 1.1 12.4 1.5 1 .5.5.8-.5 1-2.4.5-6.9.7-9.7-.1-4-1.1-7.4-4.5-13.1-3.6 5 1.1 7.7 5.8 13.2 6.9 5.5 1.1 9.2-1.1 10.5-1.4 1.3-.3 2.4.1 2.6 1 .3.9-.8 1.9-2.3 2.2-1.1.2-1.5.2-3.5.4-4.2.4-7.2-.1-9.9-.8C30.6 10 27 6.7 25.3 5.8c-1.7-.9-3.6-1.3-5-1.5 0 0 2.8 1.4 3.8 3.2C21.6 6.6 18 6 13.2 7 10.9 7.4 6 8.5 0 10.9c3 .9 6.8.2 8.5.1 9-.7 12 1.2 14.9 2.3 8.8 3.1 11.8.3 12.4 1.2.4.7-2.4 1.8-3.2 2-4 .7-5.9 0-9.5-.8 1.8 1.8 5.3 3.1 9.2 3 4-.2 8.2-.8 11.6-2.2 4-1.7 5.6-2.2 7.4-2.7.8-.2 3.5-.9 4.1-.2.3.4-.2.8-1.1 1.2-.7.3-1.6.6-2.4.9-1.9.7-5.6 2.1-6.7 3 0 0 5.1-.8 10.1-.8s8.4 1.1 12.2 2.5c4.1 1.5 7.6 1 10.6-1.5 2.7-2.3 4-4.9 3.9-8 0-3.2-1.1-5.7-3.2-7.8zm-7.1 16c-4.7 0-8.5-3.8-8.5-8.5s3.8-8.5 8.5-8.5 8.5 3.8 8.5 8.5-3.8 8.5-8.5 8.5zm0-15.2c-3.7 0-6.7 3-6.7 6.7s3 6.7 6.7 6.7 6.7-3 6.7-6.7c.1-3.7-2.9-6.7-6.7-6.7zM74.9 15c.8-1 1.2-2.2 1.2-3.5 0-2.7-2-5-4.6-5.5.2-.3.5-.7.8-.9 2.7.4 4.7 2.7 4.7 5.5 0 1.8-.8 3.4-2.1 4.4z" style="/* fill: #000; */"/></svg>