<?xml version="1.0" encoding="UTF-8"?>
<svg width="83px" height="22px" viewBox="0 0 83 22" version="1.1" xmlns="http://www.w3.org/2000/svg" xmlns:xlink="http://www.w3.org/1999/xlink">
    <!-- Generator: Sketch 42 (36781) - http://www.bohemiancoding.com/sketch -->
    <title>PayPal-logo</title>
    <desc>Created with Sketch.</desc>
    <defs></defs>
    <g id="Symbols" stroke="none" stroke-width="1" fill="none" fill-rule="evenodd">
        <g id="paysistem/yakassa" transform="translate(-177.000000, -13.000000)" fill="currentColor">
            <g id="UI/logo/paypal-Component" transform="translate(141.000000, 0.000000)">
                <g id="PayPal-logo" transform="translate(36.000000, 13.000000)">
                    <g>
                        <path d="M10.0069016,0.0735952381 L3.57347937,0.0735952381 C3.13318413,0.0735952381 2.7587619,0.391547619 2.68999048,0.823690476 L0.0880063492,17.2210238 C0.0363619048,17.5447381 0.28852381,17.8362381 0.618679365,17.8362381 L3.68994286,17.8362381 C4.1302381,17.8362381 4.50466032,17.5185476 4.57343175,17.085619 L5.27511111,12.6628333 C5.34282857,12.2299048 5.71804127,11.9119524 6.15754603,11.9119524 L8.19407619,11.9119524 C12.431819,11.9119524 14.8775524,9.87354762 15.5165206,5.83445238 C15.804254,4.06711905 15.5286413,2.6787619 14.6960063,1.70630952 C13.7816889,0.63852381 12.1598952,0.0735952381 10.0069016,0.0735952381 Z M10.7488952,6.06257143 C10.3971333,8.35711905 8.63331746,8.35711905 6.92799683,8.35711905 L5.95702857,8.35711905 L6.63815556,4.07183333 C6.67873333,3.81280952 6.90428254,3.62214286 7.1677746,3.62214286 L7.6128127,3.62214286 C8.77454921,3.62214286 9.8704127,3.62214286 10.4366571,4.28030952 C10.774454,4.67290476 10.8777429,5.25642857 10.7488952,6.06257143 L10.7488952,6.06257143 Z" id="Fill-1"></path>
                        <path d="M29.2373429,5.98871429 L26.1565937,5.98871429 C25.8941556,5.98871429 25.6672889,6.17938095 25.6269746,6.43840476 L25.4904857,7.29483333 L25.2752127,6.98447619 C24.6083143,6.0222381 23.1209016,5.70061905 21.6366508,5.70061905 C18.2320698,5.70061905 15.3244349,8.26361905 14.7581905,11.8587857 C14.4638698,13.6520476 14.8822952,15.367 15.9059619,16.5628571 C16.8447841,17.6623333 18.1880667,18.1206667 19.786146,18.1206667 C22.5293619,18.1206667 24.0502381,16.3674762 24.0502381,16.3674762 L23.9129587,17.2184048 C23.8613143,17.5436905 24.1134762,17.8354524 24.4417873,17.8354524 L27.2166222,17.8354524 C27.6579714,17.8354524 28.0305492,17.5175 28.1001111,17.0845714 L29.7651175,6.60392857 C29.8178159,6.2812619 29.5664444,5.98871429 29.2373429,5.98871429 Z M24.9429492,11.948619 C24.6457302,13.697881 23.2489587,14.8722619 21.4672254,14.8722619 C20.5726698,14.8722619 19.8578159,14.5870476 19.3985492,14.0467381 C18.9432349,13.5100952 18.7703841,12.746119 18.9150413,11.8951905 C19.1927619,10.1608571 20.6129841,8.94797619 22.3675778,8.94797619 C23.2423714,8.94797619 23.9535365,9.23711905 24.4220254,9.78188095 C24.8913048,10.3326667 25.0775937,11.1013571 24.9429492,11.948619 L24.9429492,11.948619 Z" id="Fill-2"></path>
                        <path d="M45.6449937,5.98871429 L42.5489619,5.98871429 C42.2535873,5.98871429 41.9761302,6.13459524 41.8088127,6.37869048 L37.5389238,12.6300952 L35.7289968,6.62252381 C35.6151683,6.24669048 35.2663048,5.98871429 34.8710667,5.98871429 L31.8290508,5.98871429 C31.4591079,5.98871429 31.2024667,6.34778571 31.3199841,6.6937619 L34.7300984,16.640381 L31.5241905,21.1388571 C31.2720286,21.4932143 31.5260349,21.9803571 31.9615873,21.9803571 L35.0536667,21.9803571 C35.3471968,21.9803571 35.6217556,21.8381429 35.7882825,21.5990238 L46.0850254,6.8255 C46.331654,6.47219048 46.0784381,5.98871429 45.6449937,5.98871429" id="Fill-3"></path>
                        <path d="M55.8945714,0.0735952381 L49.4603587,0.0735952381 C49.0211175,0.0735952381 48.6466952,0.391547619 48.5779238,0.823690476 L45.9759397,17.2210238 C45.9242952,17.5447381 46.1764571,17.8362381 46.5047683,17.8362381 L49.8065873,17.8362381 C50.1130286,17.8362381 50.3754667,17.613881 50.4234222,17.3108571 L51.1619905,12.6628333 C51.2297079,12.2299048 51.6051841,11.9119524 52.0444254,11.9119524 L54.0801651,11.9119524 C58.3186984,11.9119524 60.7636413,9.87354762 61.4034,5.83445238 C61.6921873,4.06711905 61.4147302,2.6787619 60.5820952,1.70630952 C59.6685683,0.63852381 58.0478286,0.0735952381 55.8945714,0.0735952381 Z M56.6368286,6.06257143 C56.2858571,8.35711905 54.5220413,8.35711905 52.8156667,8.35711905 L51.8460159,8.35711905 L52.5279333,4.07183333 C52.5682476,3.81280952 52.7922159,3.62214286 53.0564984,3.62214286 L53.5015365,3.62214286 C54.662219,3.62214286 55.7591365,3.62214286 56.325381,4.28030952 C56.6631778,4.67290476 56.7656762,5.25642857 56.6368286,6.06257143 L56.6368286,6.06257143 Z" id="Fill-4"></path>
                        <path d="M75.1242222,5.98871429 L72.0453175,5.98871429 C71.7810349,5.98871429 71.5562762,6.17938095 71.5167524,6.43840476 L71.3802635,7.29483333 L71.1639365,6.98447619 C70.4970381,6.0222381 69.0106794,5.70061905 67.5261651,5.70061905 C64.1218476,5.70061905 61.2152667,8.26361905 60.6490222,11.8587857 C60.3554921,13.6520476 60.772073,15.367 61.7954762,16.5628571 C62.7364063,17.6623333 64.077581,18.1206667 65.6759238,18.1206667 C68.4188762,18.1206667 69.9400159,16.3674762 69.9400159,16.3674762 L69.8027365,17.2184048 C69.7510921,17.5436905 70.0029905,17.8354524 70.3334095,17.8354524 L73.107454,17.8354524 C73.5466952,17.8354524 73.9211175,17.5175 73.9898889,17.0845714 L75.6556857,6.60392857 C75.7065397,6.2812619 75.4543778,5.98871429 75.1242222,5.98871429 Z M70.8300921,11.948619 C70.5347175,13.697881 69.1358381,14.8722619 67.3541048,14.8722619 C66.4613937,14.8722619 65.7446952,14.5870476 65.2854286,14.0467381 C64.8303778,13.5100952 64.6591079,12.746119 64.8019206,11.8951905 C65.0814857,10.1608571 66.4998635,8.94797619 68.2544571,8.94797619 C69.1292508,8.94797619 69.8404159,9.23711905 70.3089048,9.78188095 C70.7800286,10.3326667 70.9663175,11.1013571 70.8300921,11.948619 L70.8300921,11.948619 Z" id="Fill-5"></path>
                        <path d="M78.7561968,0.523547619 L76.1157429,17.2210238 C76.0640984,17.5447381 76.3159968,17.8362381 76.6443079,17.8362381 L79.2989905,17.8362381 C79.7403397,17.8362381 80.1144984,17.5185476 80.1822159,17.085619 L82.7860444,0.689071429 C82.8379524,0.365357143 82.5857905,0.0728095238 82.2574794,0.0728095238 L79.2850254,0.0728095238 C79.0225873,0.0735952381 78.7967746,0.26452381 78.7561968,0.523547619" id="Fill-6"></path>
                    </g>
                </g>
            </g>
        </g>
    </g>
</svg>