<?xml version="1.0" encoding="UTF-8"?>
<svg width="12px" height="17px" viewBox="0 0 12 17" version="1.1" xmlns="http://www.w3.org/2000/svg" xmlns:xlink="http://www.w3.org/1999/xlink">
    <!-- Generator: Sketch 41.2 (35397) - http://www.bohemiancoding.com/sketch -->
    <title>Pin</title>
    <desc>Created with Sketch.</desc>
    <defs></defs>
    <g id="Page-1" stroke="none" stroke-width="1" fill="none" fill-rule="evenodd">
        <g id="text-page--desktop" transform="translate(-908.000000, -40.000000)" fill="currentColor">
            <g id="Group-5" transform="translate(-2.000000, 33.000000)">
                <g id="noun_532303_cc" transform="translate(910.000000, 7.000000)">
                    <path d="M11.3948182,3.84062903 C11.0997273,3.12920565 10.6778182,2.49039919 10.14,1.94229435 C9.60245455,1.39363306 8.97627273,0.962939516 8.27890909,0.662177419 C7.557,0.350564516 6.79009091,0.192532258 6.00027273,0.192532258 C5.20963636,0.192532258 4.44272727,0.350564516 3.72081818,0.662177419 C3.02372727,0.963217742 2.39727273,1.39363306 1.86,1.94229435 C1.32190909,2.49039919 0.9,3.12948387 0.604909091,3.84062903 C0.299181818,4.57737097 0.144545455,5.35974194 0.144545455,6.1657621 C0.144545455,7.51960887 1.08354545,9.70173387 2.93536364,12.6509274 C4.29327273,14.8135766 5.67027273,16.6231573 5.68390909,16.6412419 L6,17.0552419 L6.31527273,16.6412419 C6.32918182,16.6234355 7.70645455,14.8138548 9.06409091,12.6509274 C10.9159091,9.70173387 11.8549091,7.51960887 11.8549091,6.1657621 C11.8554545,5.35974194 11.7005455,4.57764919 11.3948182,3.84062903 L11.3948182,3.84062903 Z M6,8.21433871 C4.74681818,8.21433871 3.73063636,7.17766935 3.73063636,5.89894355 C3.73063636,4.62021774 4.74709091,3.58354839 6,3.58354839 C7.25372727,3.58354839 8.26936364,4.62021774 8.26936364,5.89894355 C8.26936364,7.17766935 7.25372727,8.21433871 6,8.21433871 L6,8.21433871 Z" id="Pin"></path>
                </g>
            </g>
        </g>
    </g>
</svg>