<?xml version="1.0" encoding="UTF-8"?>
<svg width="28px" height="23px" viewBox="0 0 28 23" version="1.1" xmlns="http://www.w3.org/2000/svg" xmlns:xlink="http://www.w3.org/1999/xlink">
    <!-- Generator: Sketch 41.2 (35397) - http://www.bohemiancoding.com/sketch -->
    <title>icon__twitter</title>
    <desc>Created with Sketch.</desc>
    <defs></defs>
    <g id="Symbols" stroke="none" stroke-width="1" fill="none" fill-rule="evenodd">
        <g id="footer" transform="translate(-632.000000, -35.000000)" fill="currentColor">
            <g id="icon__twitter" transform="translate(632.000000, 35.000000)">
                <path d="M28,2.72071552 C26.9741426,3.180804 25.8629795,3.49932679 24.7015077,3.63868052 C25.8892274,2.91979227 26.7947817,1.78063089 27.2300602,0.422485093 C26.118897,1.08828621 24.889618,1.57270629 23.5728459,1.83150606 C22.5316772,0.707828429 21.0355441,0 19.3862979,0 C16.2168581,0 13.644559,2.60126947 13.644559,5.80640508 C13.644559,6.26428159 13.6970549,6.7044624 13.7911101,7.12915945 C9.01398328,6.88584343 4.7858761,4.57876515 1.94891024,1.06174264 C1.45238653,1.91777265 1.17022108,2.91979227 1.17022108,3.98374687 C1.17022108,5.99663397 2.18732911,7.77726486 3.72502148,8.81246394 C2.78446996,8.78813233 1.90516366,8.52048471 1.12866182,8.0869398 L1.12866182,8.15772264 C1.12866182,10.9735526 3.110382,13.3226582 5.73298961,13.8601654 C5.25396453,13.9884593 4.74212952,14.0570302 4.22154519,14.0570302 C3.8540739,14.0570302 3.49535193,14.0238507 3.13662995,13.9552799 C3.87157253,16.2623581 5.98890712,17.9368148 8.50214827,17.9899019 C6.5357394,19.5449125 4.05749551,20.4695134 1.3670807,20.4695134 C0.905554254,20.4695134 0.452777127,20.4429698 0,20.3920946 C2.54605109,22.0422197 5.56237794,23 8.80837435,23 C19.3687993,23 25.1455355,14.1521446 25.1455355,6.48105405 L25.1280369,5.72898634 C26.2566987,4.90834776 27.2300602,3.88863243 28,2.72071552 Z" id="twitter-logo-silhouette"></path>
            </g>
        </g>
    </g>
</svg>
