<?xml version="1.0" encoding="UTF-8"?>
<svg width="28px" height="28px" viewBox="0 0 28 28" version="1.1" xmlns="http://www.w3.org/2000/svg" xmlns:xlink="http://www.w3.org/1999/xlink">
    <!-- Generator: Sketch 41.2 (35397) - http://www.bohemiancoding.com/sketch -->
    <title>Fill 3</title>
    <desc>Created with Sketch.</desc>
    <defs></defs>
    <g id="Symbols" stroke="none" stroke-width="1" fill="none" fill-rule="evenodd">
        <g id="footer" transform="translate(-593.000000, -31.000000)" fill="currentColor">
            <path d="M593,45.0004297 C593,51.1858866 597.01105,56.4328248 602.574266,58.2840787 C603.274717,58.4129961 603.529973,57.9806931 603.529973,57.609411 C603.529973,57.2776635 603.517941,56.396728 603.511065,55.2287363 C599.6169,56.0744345 598.795267,53.3516989 598.795267,53.3516989 C598.158415,51.7342153 597.240523,51.3036312 597.240523,51.3036312 C595.969397,50.4355873 597.336781,50.4527763 597.336781,50.4527763 C598.741981,50.551613 599.481107,51.8957918 599.481107,51.8957918 C600.729887,54.0349612 602.758188,53.4170171 603.555757,53.0586267 C603.682955,52.154486 604.044783,51.5374014 604.444427,51.1876055 C601.335799,50.8343718 598.067313,49.6328617 598.067313,44.2681789 C598.067313,42.740078 598.613064,41.4895792 599.50861,40.5115258 C599.364222,40.1574327 598.88379,38.7333251 599.646122,36.8064397 C599.646122,36.8064397 600.820989,36.4300009 603.495595,38.2417201 C604.61202,37.9305995 605.810092,37.7758986 607.00043,37.7698824 C608.189908,37.7758986 609.387121,37.9305995 610.505264,38.2417201 C613.178152,36.4300009 614.3513,36.8064397 614.3513,36.8064397 C615.11535,38.7333251 614.634918,40.1574327 614.49139,40.5115258 C615.388655,41.4895792 615.930108,42.740078 615.930108,44.2681789 C615.930108,49.6466128 612.656466,50.8300746 609.538384,51.1764327 C610.040302,51.6087357 610.488075,52.4630283 610.488075,53.7693913 C610.488075,55.6404125 610.470886,57.150465 610.470886,57.609411 C610.470886,57.9841309 610.723564,58.4198717 611.433469,58.2832193 C616.992388,56.4276681 621,51.1841677 621,45.0004297 C621,37.267964 614.731177,31 606.998711,31 C599.268823,31 593,37.267964 593,45.0004297 Z" id="Fill-3"></path>
        </g>
    </g>
</svg>