<?xml version="1.0" encoding="UTF-8"?>
<svg width="26px" height="26px" viewBox="0 0 26 26" version="1.1" xmlns="http://www.w3.org/2000/svg" xmlns:xlink="http://www.w3.org/1999/xlink">
    <!-- Generator: Sketch 41.2 (35397) - http://www.bohemiancoding.com/sketch -->
    <title>SocialIcon_instagram</title>
    <desc>Created with Sketch.</desc>
    <defs></defs>
    <g id="Page-1" stroke="none" stroke-width="1" fill="none" fill-rule="evenodd">
        <g id="text-page--desktop" transform="translate(-760.000000, -4930.000000)" fill="currentColor">
            <g id="Group-21" transform="translate(649.000000, 4930.000000)">
                <g id="SocialIcon_instagram" transform="translate(111.000000, 0.000000)">
                    <path d="M18.0403815,0 L7.6922847,0 C3.49323038,0 0.0717787064,3.45860465 0.0717787064,7.70325581 L0.0717787064,18.1637209 C0.0717787064,22.4083721 3.49323038,25.8669767 7.6922847,25.8669767 L18.0403815,25.8669767 C22.2394359,25.8669767 25.6608875,22.4083721 25.6608875,18.1637209 L25.6608875,7.70325581 C25.6608875,3.45860465 22.2394359,0 18.0403815,0 L18.0403815,0 L18.0403815,0 Z M23.0888172,18.1637209 C23.0888172,20.9813953 20.827788,23.2669767 18.0403815,23.2669767 L7.6922847,23.2669767 C4.90487827,23.2669767 2.64384902,20.9813953 2.64384902,18.1637209 L2.64384902,7.70325581 C2.64384902,4.8855814 4.90487827,2.6 7.6922847,2.6 L18.0403815,2.6 C20.827788,2.6 23.0888172,4.8855814 23.0888172,7.70325581 L23.0888172,18.1637209 L23.0888172,18.1637209 Z" id="Shape"></path>
                    <path d="M12.8603516,6.24 C9.21160065,6.24 6.24474746,9.23906977 6.24474746,12.9274419 C6.24474746,16.615814 9.21160065,19.6148837 12.8603516,19.6148837 C16.5091025,19.6148837 19.4759557,16.615814 19.4759557,12.9274419 C19.4759557,9.23906977 16.5091025,6.24 12.8603516,6.24 L12.8603516,6.24 L12.8603516,6.24 Z M12.8603516,17.0269767 C10.6232485,17.0269767 8.81681777,15.2009302 8.81681777,12.9395349 C8.81681777,10.6781395 10.6232485,8.85209302 12.8603516,8.85209302 C15.0974546,8.85209302 16.9038854,10.6781395 16.9038854,12.9395349 C16.9038854,15.2009302 15.0974546,17.0269767 12.8603516,17.0269767 L12.8603516,17.0269767 L12.8603516,17.0269767 Z" id="Shape"></path>
                    <path d="M21.0790134,6.30046512 C21.0790134,7.18325581 20.3731895,7.90883721 19.4879188,7.90883721 C18.6146112,7.90883721 17.8968241,7.19534884 17.8968241,6.30046512 C17.8968241,5.41767442 18.6026481,4.69209302 19.4879188,4.69209302 C20.3731895,4.69209302 21.0790134,5.4055814 21.0790134,6.30046512 L21.0790134,6.30046512 L21.0790134,6.30046512 Z" id="Shape"></path>
                </g>
            </g>
        </g>
    </g>
</svg>