<?xml version="1.0" encoding="UTF-8"?>
<svg width="31px" height="17px" viewBox="0 0 31 17" version="1.1" xmlns="http://www.w3.org/2000/svg" xmlns:xlink="http://www.w3.org/1999/xlink">
    <!-- Generator: Sketch 41.2 (35397) - http://www.bohemiancoding.com/sketch -->
    <title>SocialIcon_vk</title>
    <desc>Created with Sketch.</desc>
    <defs></defs>
    <g id="Page-1" stroke="none" stroke-width="1" fill="none" fill-rule="evenodd">
        <g id="text-page--desktop" transform="translate(-649.000000, -4935.000000)" fill="currentColor">
            <g id="Group-21" transform="translate(649.000000, 4930.000000)">
                <path d="M15.1743889,21.926897 L17.0277236,21.926897 C17.0277236,21.926897 17.5861,21.8698358 17.8712285,21.5731175 C18.1325962,21.2992237 18.1207158,20.7856728 18.1207158,20.7856728 C18.1207158,20.7856728 18.0850748,18.4005143 19.2374688,18.0467348 C20.3779825,17.7043676 21.8392656,20.3520076 23.3837112,21.3791094 C24.5598659,22.1551418 25.4390119,21.9839582 25.4390119,21.9839582 L29.5852543,21.926897 C29.5852543,21.926897 31.7474781,21.8013624 30.7257679,20.1579995 C30.6426055,20.0210526 30.1317504,18.9483019 27.6487571,16.734327 C25.0469603,14.4176419 25.4033708,14.7942459 28.5279031,10.788549 C30.4287592,8.34632929 31.1891016,6.86273786 30.9514946,6.22365232 C30.7257679,5.61880351 29.3238866,5.77857489 29.3238866,5.77857489 L24.6667891,5.80139938 C24.6667891,5.80139938 24.3222589,5.75575041 24.0608912,5.90410955 C23.8114038,6.0524687 23.6450789,6.38342371 23.6450789,6.38342371 C23.6450789,6.38342371 22.9084972,8.2664436 21.9224281,9.87556969 C19.8433667,13.2650055 19.0117421,13.4361891 18.6790923,13.2307688 C17.8949892,12.7400424 18.0850748,11.2678632 18.0850748,10.2065247 C18.0850748,6.91979907 18.6078102,5.5617423 17.075245,5.20796281 C16.5643899,5.09384039 16.196099,5.0139547 14.9011408,5.00254245 C13.2378917,4.99113021 11.8241299,5.00254245 11.0281465,5.37914643 C10.4935307,5.63021575 10.0895987,6.1894156 10.3390861,6.21224008 C10.6479752,6.24647681 11.3489159,6.39483595 11.7172068,6.87415011 C12.1924208,7.5018234 12.1805405,8.90552914 12.1805405,8.90552914 C12.1805405,8.90552914 12.4537885,12.7742791 11.5390015,13.2535933 C10.9093429,13.5845483 10.0539577,12.911226 8.20062298,9.84133297 C7.25019492,8.2664436 6.53737388,6.53178285 6.53737388,6.53178285 C6.53737388,6.53178285 6.39480967,6.21224008 6.15720266,6.02964421 C5.86019389,5.82422386 5.44438161,5.75575041 5.44438161,5.75575041 L1.01301079,5.77857489 C1.01301079,5.77857489 0.347711152,5.80139938 0.0982237873,6.07529318 C-0.115622526,6.3263625 0.0863434365,6.82850114 0.0863434365,6.82850114 C0.0863434365,6.82850114 3.55540585,14.6230623 7.48780194,18.5488734 C11.0875482,22.1665541 15.1743889,21.926897 15.1743889,21.926897 L15.1743889,21.926897 L15.1743889,21.926897 Z" id="SocialIcon_vk"></path>
            </g>
        </g>
    </g>
</svg>