<?xml version="1.0" encoding="UTF-8"?>
<svg width="110px" height="24px" viewBox="0 0 110 24" version="1.1" xmlns="http://www.w3.org/2000/svg" xmlns:xlink="http://www.w3.org/1999/xlink">
    <!-- Generator: Sketch 42 (36781) - http://www.bohemiancoding.com/sketch -->
    <title>12:18:12:18</title>
    <desc>Created with Sketch.</desc>
    <defs></defs>
    <g id="Symbols" stroke="none" stroke-width="1" fill="none" fill-rule="evenodd">
        <g id="paysistem/yakassa" transform="translate(-18.000000, -12.000000)" fill="currentColor">
            <g id="UI/logo__ya-kassa--active-Component">
                <path d="M25.8283199,13.7928199 L24.4294449,13.7928199 C23.9990196,13.7928199 23.5820514,13.8833654 23.1785278,14.0644593 C22.7750041,14.2455531 22.4163218,14.5352989 22.10247,14.9337053 C21.7886183,15.3321117 21.5375407,15.843694 21.3492296,16.4684678 C21.1609186,17.0932415 21.0667645,17.8402422 21.0667645,18.7094926 C21.0667645,19.5606336 21.1698856,20.2804708 21.3761311,20.8690257 C21.5823765,21.4575806 21.8558718,21.9419993 22.1966251,22.3222963 C22.5373784,22.7025934 22.9229619,22.9787573 23.3533871,23.1507964 C23.7838124,23.3228356 24.2321653,23.4088538 24.6984593,23.4088538 L25.8283199,23.4088538 L25.8283199,13.7928199 Z M20.4480313,32.943396 L18,32.943396 L22.3580337,24.8213786 C21.0846924,24.2056596 20.174536,23.3862223 19.6275373,22.3630422 C19.0805385,21.3398621 18.8070433,20.1220245 18.8070433,18.7094926 C18.8070433,17.6229297 18.9594833,16.6631468 19.2643678,15.8301152 C19.5692524,14.9970836 19.9817371,14.2953556 20.5018342,13.72491 C21.0219313,13.1544645 21.6272078,12.7243731 22.3176816,12.434623 C23.0081554,12.1448729 23.7389706,12 24.5101492,12 L27.9535339,12 L27.9535339,32.943396 L25.8283199,32.943396 L25.8283199,25.1745098 L24.4294449,25.1745098 L20.4480313,32.943396 Z M54.8011739,20.3121649 C54.4962893,20.3121649 54.2272776,20.4208196 53.9941306,20.6381322 C53.7609836,20.8554447 53.5637083,21.1587723 53.4022989,21.5481241 C53.2408894,21.9374759 53.1153505,22.3947309 53.0256787,22.919903 C52.9360067,23.445075 52.8732373,24.015512 52.8373685,24.631231 L56.388359,24.631231 L56.388359,24.3324277 C56.388359,24.2418808 56.3838755,24.1422807 56.3749083,24.0336244 C56.3659411,23.9249681 56.3614576,23.8072589 56.3614576,23.6804932 C56.28972,22.6120397 56.1193459,21.7835478 55.8503302,21.1949929 C55.5813143,20.606438 55.2315991,20.3121649 54.8011739,20.3121649 L54.8011739,20.3121649 Z M71.5876742,25.962264 C71.5876742,27.6102178 71.8387518,28.9050192 72.3409146,29.8467071 C72.8430775,30.7883949 73.6142444,31.2592318 74.6544387,31.2592318 C75.0489952,31.2592318 75.4525128,31.2003772 75.8650037,31.0826663 C76.2774945,30.9649553 76.6092756,30.8517733 76.8603571,30.743117 L77.0755686,32.2914615 C76.6630778,32.5449928 76.2012742,32.7668294 75.6901443,32.956978 C75.1790144,33.1471265 74.6006391,33.2421993 73.9550012,33.2421993 C72.5740536,33.2421993 71.4576549,32.6627078 70.6057716,31.5037073 C69.7538883,30.3447068 69.327953,28.6786686 69.327953,26.5055427 C69.327953,25.3103235 69.4490083,24.2237769 69.6911225,23.2458702 C69.9332367,22.2679636 70.2605343,21.4349445 70.6730252,20.7467879 C71.085516,20.0586314 71.5787043,19.5244127 72.1526045,19.1441156 C72.7265048,18.7638186 73.3452319,18.5736729 74.0088041,18.5736729 C74.6006388,18.5736729 75.1341788,18.655164 75.60944,18.8181484 C76.0847012,18.9811328 76.5106364,19.1984421 76.8872585,19.4700829 L75.7842993,21.3443946 C75.5332179,21.0546445 75.2507556,20.8101715 74.9369039,20.6109683 C74.6230521,20.411765 74.3047216,20.3121649 73.9819027,20.3121649 C73.6052806,20.3121649 73.2645324,20.4751469 72.9596478,20.8011158 C72.6547633,21.1270847 72.4036857,21.5526488 72.2064074,22.0778209 C72.0091292,22.602993 71.8566892,23.2051209 71.7490829,23.8842228 C71.6414766,24.5633246 71.5876742,25.2559981 71.5876742,25.962264 L71.5876742,25.962264 Z M46.0313035,20.6652961 L44.0136953,20.6652961 L44.0136953,20.9369355 C44.0136953,21.7880765 43.9867941,22.6890048 43.932991,23.6397473 C43.8791878,24.5904899 43.7805502,25.5231091 43.6370751,26.4376329 C43.4936,27.3521567 43.3052918,28.2168667 43.0721448,29.031789 C42.8389978,29.8467111 42.5430849,30.5529665 42.1843972,31.1505761 L46.0313035,31.1505761 L46.0313035,20.6652961 Z M68.8168256,32.916232 L66.4225972,32.916232 L63.1137197,26.0165919 L62.8716067,25.7177886 L62.8716067,32.916232 L60.7194913,32.916232 L60.7194913,18.9268041 L62.8716067,18.9268041 L62.8716067,25.2831655 L63.1137197,25.0115262 L66.045977,18.9268041 L68.3325997,18.9268041 L64.9430179,25.2288377 L68.8168256,32.916232 Z M38.2298851,18.9268041 L38.2298851,32.916232 L36.1046711,32.916232 L36.1046711,26.2339034 L32.9303008,26.2339034 L32.9303008,32.916232 L30.7781854,32.916232 L30.7781854,18.9268041 L32.9303008,18.9268041 L32.9303008,24.4410835 L36.1046711,24.4410835 L36.1046711,18.9268041 L38.2298851,18.9268041 Z M58.5404744,32.2914615 C58.0921148,32.5449928 57.5944431,32.7668294 57.0474444,32.956978 C56.5004456,33.1471265 55.8862022,33.2421993 55.2046955,33.2421993 C53.8058135,33.2421993 52.6849313,32.6536532 51.8420152,31.4765433 C50.9990991,30.2994335 50.5776473,28.6424499 50.5776473,26.5055427 C50.5776473,25.4733079 50.6628344,24.4818341 50.8332111,23.5310916 C51.0035877,22.580349 51.2636324,21.7382754 51.6133529,21.0048454 C51.9630734,20.2714154 52.4069428,19.6828693 52.9449743,19.2391894 C53.4830059,18.7955095 54.1286341,18.5736729 54.8818782,18.5736729 C55.99381,18.5736729 56.8905158,19.1350554 57.5720225,20.2578371 C58.2535292,21.3806187 58.5942773,23.0376024 58.5942773,25.2288377 L58.5942773,26.4240509 L52.8104671,26.4240509 C52.8104671,27.9452391 53.0660283,29.1313858 53.5771582,29.9825268 C54.0882882,30.8336678 54.8908399,31.2592318 55.9848374,31.2592318 C56.3973282,31.2592318 56.8232634,31.2003772 57.2626559,31.0826663 C57.7020484,30.9649553 58.0472801,30.8517733 58.2983615,30.743117 L58.5404744,32.2914615 Z M49.2325752,35.6597898 L47.3225728,35.6597898 L47.3225728,32.916232 L41.3773539,32.916232 L41.3773539,35.6597898 L39.4673514,35.6597898 L39.4673514,31.1505761 L40.3012962,31.1505761 C40.7317214,30.3356538 41.0679861,29.457362 41.3101003,28.5156741 C41.5522145,27.5739863 41.7360391,26.6232579 41.8615798,25.6634607 C41.9871206,24.7036634 42.0633405,23.7529351 42.0902421,22.8112472 C42.1171437,21.8695594 42.1305943,20.9731584 42.1305943,20.1220174 L42.1305943,18.9268041 L48.1565175,18.9268041 L48.1565175,31.1505761 L49.2325752,31.1505761 L49.2325752,35.6597898 Z M85.0114943,22.9742308 L85.0114943,32.943396 L83.720225,32.943396 L83.720225,14.0644593 L85.0114943,14.0644593 L85.0114943,22.8655751 L90.6338958,14.0644593 L91.8713622,14.0644593 L86.329665,22.7569193 L92.3555882,32.943396 L90.9029102,32.943396 L85.0114943,22.9742308 Z M96.659819,32.2371336 C97.2875225,32.2371336 97.8210623,31.9745515 98.2604549,31.4493794 C98.6998474,30.9242073 99.0450789,30.2903885 99.2961604,29.5479038 L99.2961604,25.6634607 L97.8434825,25.6634607 C96.7136158,25.6634607 95.8707129,25.9396246 95.3147469,26.4919608 C94.7587808,27.044297 94.4808022,27.9271161 94.4808022,29.1404447 C94.4808022,30.1183514 94.6780774,30.878934 95.0726339,31.4222155 C95.4671904,31.9654969 95.9962472,32.2371336 96.659819,32.2371336 L96.659819,32.2371336 Z M99.6727806,32.943396 C99.6189777,32.7623022 99.5606919,32.531411 99.4979213,32.2507156 C99.4351506,31.9700202 99.3858325,31.5852016 99.3499633,31.0962482 C99.0271443,31.748186 98.623627,32.2642956 98.1393984,32.6445927 C97.6551698,33.0248897 97.072311,33.2150354 96.3908046,33.2150354 C95.4761512,33.2150354 94.7318855,32.8664349 94.1579848,32.1692238 C93.5840842,31.4720126 93.2971387,30.4986478 93.2971387,29.2491005 C93.2971387,27.7822405 93.6827223,26.6730575 94.4539007,25.9215181 C95.2250792,25.1699787 96.3459616,24.7942147 97.8165811,24.7942147 L99.2961604,24.7942147 L99.2961604,23.0828866 C99.2961604,22.0144331 99.1078521,21.2402685 98.7312301,20.7603699 C98.3546082,20.2804713 97.7896831,20.0405256 97.0364392,20.0405256 C96.4625386,20.0405256 95.9245158,20.1718166 95.4223527,20.4344027 C94.9201895,20.6969887 94.5077053,21.0636982 94.1848863,21.5345421 L93.8351675,20.3664928 C94.1041837,20.0043052 94.5121849,19.6828684 95.0591832,19.402173 C95.6061815,19.1214776 96.2652608,18.981132 97.0364392,18.981132 C98.1483713,18.981132 99.000242,19.3025687 99.5920763,19.9454518 C100.183911,20.5883348 100.479824,21.5888632 100.479824,22.9470669 L100.479824,30.4171498 C100.479824,30.8879937 100.506725,31.3633579 100.560528,31.8432565 C100.614331,32.3231551 100.686068,32.6898646 100.77574,32.943396 L99.6727806,32.943396 Z M107.285889,32.1556418 C107.734248,32.1556418 108.124316,32.0832054 108.456102,31.9383303 C108.787888,31.7934552 109.07035,31.6214187 109.303497,31.4222155 C109.572513,31.2230122 109.796689,30.9785393 109.976033,30.6887892 L110.379555,31.6938548 C110.164342,31.9836049 109.904298,32.2371326 109.599413,32.4544451 C109.348331,32.6536483 109.025518,32.8302122 108.630961,32.9841419 C108.236405,33.1380716 107.779084,33.2150354 107.258988,33.2150354 C105.895974,33.2150354 104.842345,32.5947983 104.098068,31.3543056 C103.353791,30.113813 102.981658,28.370811 102.981658,26.1252476 C102.981658,23.8615748 103.349307,22.1049911 104.084617,20.8554437 C104.819927,19.6058963 105.887007,18.981132 107.285889,18.981132 C108.003265,18.981132 108.599574,19.1033685 109.074835,19.3478452 C109.550096,19.5923218 109.940163,19.8956494 110.245048,20.2578371 L109.895329,21.5617061 C109.590444,21.1451903 109.227278,20.7830081 108.80582,20.4751486 C108.384363,20.1672891 107.877723,20.0133616 107.285889,20.0133616 C106.227761,20.0133616 105.447627,20.5430532 104.945463,21.602452 C104.4433,22.6618508 104.192223,24.1694343 104.192223,26.1252476 C104.192223,28.0448421 104.438817,29.5297892 104.932013,30.5801334 C105.425208,31.6304776 106.209826,32.1556418 107.285889,32.1556418 L107.285889,32.1556418 Z M116.082661,32.1556418 C116.53102,32.1556418 116.921088,32.0832054 117.252874,31.9383303 C117.584659,31.7934552 117.867122,31.6214187 118.100269,31.4222155 C118.369285,31.2230122 118.593461,30.9785393 118.772805,30.6887892 L119.176327,31.6938548 C118.961114,31.9836049 118.701069,32.2371326 118.396185,32.4544451 C118.145103,32.6536483 117.822289,32.8302122 117.427733,32.9841419 C117.033176,33.1380716 116.575856,33.2150354 116.055759,33.2150354 C114.692746,33.2150354 113.639117,32.5947983 112.89484,31.3543056 C112.150563,30.113813 111.77843,28.370811 111.77843,26.1252476 C111.77843,23.8615748 112.146079,22.1049911 112.881389,20.8554437 C113.616699,19.6058963 114.683779,18.981132 116.082661,18.981132 C116.800036,18.981132 117.396346,19.1033685 117.871607,19.3478452 C118.346868,19.5923218 118.736935,19.8956494 119.04182,20.2578371 L118.692101,21.5617061 C118.387216,21.1451903 118.02405,20.7830081 117.602592,20.4751486 C117.181134,20.1672891 116.674495,20.0133616 116.082661,20.0133616 C115.024532,20.0133616 114.244398,20.5430532 113.742235,21.602452 C113.240072,22.6618508 112.988995,24.1694343 112.988995,26.1252476 C112.988995,28.0448421 113.235589,29.5297892 113.728785,30.5801334 C114.22198,31.6304776 115.006598,32.1556418 116.082661,32.1556418 L116.082661,32.1556418 Z M123.884079,32.2371336 C124.511783,32.2371336 125.045323,31.9745515 125.484715,31.4493794 C125.924108,30.9242073 126.269339,30.2903885 126.520421,29.5479038 L126.520421,25.6634607 L125.067743,25.6634607 C123.937876,25.6634607 123.094973,25.9396246 122.539007,26.4919608 C121.983041,27.044297 121.705062,27.9271161 121.705062,29.1404447 C121.705062,30.1183514 121.902338,30.878934 122.296894,31.4222155 C122.691451,31.9654969 123.220507,32.2371336 123.884079,32.2371336 L123.884079,32.2371336 Z M126.897041,32.943396 C126.843238,32.7623022 126.784952,32.531411 126.722181,32.2507156 C126.659411,31.9700202 126.610093,31.5852016 126.574224,31.0962482 C126.251404,31.748186 125.847887,32.2642956 125.363659,32.6445927 C124.87943,33.0248897 124.296571,33.2150354 123.615065,33.2150354 C122.700411,33.2150354 121.956146,32.8664349 121.382245,32.1692238 C120.808344,31.4720126 120.521399,30.4986478 120.521399,29.2491005 C120.521399,27.7822405 120.906982,26.6730575 121.678161,25.9215181 C122.449339,25.1699787 123.570222,24.7942147 125.040841,24.7942147 L126.520421,24.7942147 L126.520421,23.0828866 C126.520421,22.0144331 126.332112,21.2402685 125.95549,20.7603699 C125.578868,20.2804713 125.013943,20.0405256 124.260699,20.0405256 C123.686799,20.0405256 123.148776,20.1718166 122.646613,20.4344027 C122.14445,20.6969887 121.731966,21.0636982 121.409146,21.5345421 L121.059428,20.3664928 C121.328444,20.0043052 121.736445,19.6828684 122.283443,19.402173 C122.830442,19.1214776 123.489521,18.981132 124.260699,18.981132 C125.372632,18.981132 126.224502,19.3025687 126.816337,19.9454518 C127.408171,20.5883348 127.704084,21.5888632 127.704084,22.9470669 L127.704084,30.4171498 C127.704084,30.8879937 127.730986,31.3633579 127.784788,31.8432565 C127.838591,32.3231551 127.910328,32.6898646 128,32.943396 L126.897041,32.943396 Z" id="12:18:12:18"></path>
            </g>
        </g>
    </g>
</svg>